<svg width="800" height="600" xmlns="http://www.w3.org/2000/svg">
 <g id="Layer_1">
  <title>Layer 1</title>
  <g stroke="null" id="svg_1">
   <path stroke="null" d="m90.44773,181.75603c-47.82562,0 -86.44771,38.78642 -86.44771,86.44771c0,47.82564 38.78642,86.44771 86.44771,86.44771c9.20357,0 18.07842,-1.47915 26.29588,-4.10873l0,-43.22384c-7.23136,4.10871 -15.61318,6.57397 -24.48803,6.57397c-26.29588,0 -47.49695,-20.54367 -47.49695,-45.6891c0,-25.14545 21.36542,-45.6891 47.49695,-45.6891c9.0392,0 17.42102,2.46523 24.48803,6.57397l0,-43.22386c-8.21747,-2.62959 -17.09231,-4.10871 -26.29588,-4.10871zm27.11764,53.57785l64.42491,0l-28.92547,30.07591l-35.49944,0" fill="#ffffff"/>
   <path stroke="null" d="m117.56536,301.40228l64.42491,0l-28.92547,-29.91156l-35.49944,0" fill="#ffffff"/>
   <path stroke="null" d="m290.95384,257.84972c8.21745,0 14.79143,-2.30088 20.05061,-6.57397c5.25917,-4.43742 7.88876,-10.51835 8.05311,-18.57146c-0.16437,-8.05311 -2.79394,-14.29839 -8.05311,-18.73581c-5.25917,-4.43744 -11.83316,-6.57399 -20.05061,-6.57399c-8.21747,0 -14.79143,2.3009 -20.05063,6.57399c-5.25917,4.27307 -7.88876,10.6827 -8.05311,18.73581c0.16435,8.05311 2.79394,14.29837 8.05311,18.57146c5.25919,4.27309 11.83316,6.57397 20.05063,6.57397zm0,-11.66879c-3.78005,-0.16437 -6.57399,-1.47915 -8.38182,-4.10873c-1.80784,-2.62959 -2.62959,-5.75224 -2.46523,-9.53226c0,-3.78003 0.82175,-6.90267 2.46523,-9.53226c1.6435,-2.62959 4.43742,-3.94438 8.38182,-4.10873c3.78003,0.16437 6.57397,1.47915 8.3818,4.10873c1.80786,2.62959 2.62959,5.75224 2.46523,9.53226c0,3.61569 -0.82173,6.90267 -2.46523,9.53226c-1.80784,2.62959 -4.60178,3.94438 -8.3818,4.10873zm34.84204,10.51835l16.76362,0l0,-20.37932c0,-5.09482 0.82173,-9.0392 2.46523,-11.50445c1.6435,-2.46523 3.94438,-3.61567 6.90267,-3.61567c2.30088,0 4.10873,0.98609 5.09482,2.79394c0.9861,1.80784 1.6435,4.10873 1.6435,6.90265l0,25.9672l16.76362,0l0,-20.37932c0,-5.09482 0.82173,-9.03922 2.46523,-11.50445c1.6435,-2.46523 3.94438,-3.61567 6.90267,-3.61567c2.30088,0 4.10873,0.98609 5.09482,2.79392c0.9861,1.80786 1.6435,4.10873 1.6435,6.90267l0,25.96718l16.76362,0l0,-28.43241c0.16437,-6.57397 -0.9861,-11.6688 -3.28698,-15.44883c-2.3009,-3.61569 -6.90267,-5.58788 -13.80535,-5.58788c-3.45134,0 -6.73832,0.6574 -9.6966,2.13654c-2.95829,1.47915 -5.42353,3.78003 -7.39572,7.06701c-1.31479,-3.12263 -3.28698,-5.42353 -5.91659,-7.06701c-2.62959,-1.47915 -5.75222,-2.3009 -9.20355,-2.3009c-3.78003,0 -7.39572,0.82175 -10.35399,2.46525c-3.12265,1.64348 -5.42353,4.10873 -7.23138,7.56005l-0.16437,0l0,-8.87484l-15.2845,0l-0.16437,48.15433l0.00008,0zm91.54252,0l16.76362,0l0,-20.37932c0,-5.09482 0.82175,-9.0392 2.46525,-11.50445c1.64348,-2.46523 3.94438,-3.61567 6.90265,-3.61567c2.3009,0 4.10873,0.98609 5.09484,2.79394c0.98609,1.80784 1.64348,4.10873 1.64348,6.90265l0,25.9672l16.76362,0l0,-20.37932c0,-5.09482 0.82175,-9.03922 2.46525,-11.50445c1.64348,-2.46523 3.94438,-3.61567 6.90265,-3.61567c2.3009,0 4.10873,0.98609 5.09484,2.79392c0.98609,1.80786 1.64348,4.10873 1.64348,6.90267l0,25.96718l16.76362,0l0,-28.43241c0.16437,-6.57397 -0.98609,-11.6688 -3.28698,-15.44883c-2.30088,-3.61569 -6.90265,-5.58788 -13.80533,-5.58788c-3.45134,0 -6.73832,0.6574 -9.69662,2.13654c-2.95827,1.47915 -5.42353,3.78003 -7.39572,7.06701c-1.31479,-3.12263 -3.28698,-5.42353 -5.91657,-7.06701c-2.62959,-1.47915 -5.75222,-2.3009 -9.20355,-2.3009c-3.94438,0 -7.39572,0.82175 -10.35401,2.46525c-3.12263,1.64348 -5.42353,4.10873 -7.23136,7.56005l-0.16437,0l0,-8.87484l-15.28448,0l-0.16437,48.15433l0.00004,0zm117.18103,1.15044c8.21747,0 14.79143,-2.30088 20.05061,-6.57397c5.25917,-4.43742 7.88876,-10.51835 8.05311,-18.57146c-0.16437,-8.05311 -2.79394,-14.29839 -8.05311,-18.73581c-5.25917,-4.43744 -11.83314,-6.57399 -20.05061,-6.57399s-14.79143,2.3009 -20.05061,6.57399c-5.25919,4.27307 -7.88878,10.6827 -8.05311,18.73581c0.16437,8.05311 2.79392,14.29837 8.05311,18.57146c5.25917,4.27309 11.99749,6.57397 20.05061,6.57397zm0,-11.66879c-3.78005,-0.16437 -6.57397,-1.47915 -8.38182,-4.10873c-1.80784,-2.62959 -2.62959,-5.75224 -2.46523,-9.53226c0,-3.78003 0.82175,-6.90267 2.46523,-9.53226c1.6435,-2.62959 4.43744,-3.94438 8.38182,-4.10873c3.78003,0.16437 6.57397,1.47915 8.3818,4.10873c1.80786,2.62959 2.62959,5.75224 2.62959,9.53226c0,3.61569 -0.82173,6.90267 -2.62959,9.53226c-1.80784,2.62959 -4.43742,3.94438 -8.3818,4.10873zm86.94075,-59.0014l-16.76362,0l0,27.44634l-0.16437,0c-2.13652,-2.79394 -4.60178,-4.6018 -7.39572,-5.75224c-2.79392,-1.15044 -5.91657,-1.64348 -9.20355,-1.64348c-6.73832,0.32869 -11.83314,2.79392 -15.28448,7.72441c-3.45134,4.93048 -5.25917,10.51835 -5.25917,16.59927c0,7.39572 1.97219,13.47664 5.58786,18.40713c3.78005,4.93048 9.20357,7.56007 16.43494,7.72441c3.94438,0 7.39572,-0.98609 10.35401,-2.79392c2.95827,-1.80786 5.09482,-4.10873 6.24526,-6.90267l0.16437,0l0,8.71051l15.44883,0l-0.16437,-69.51975l0.00002,0zm-37.14292,44.86736c0,-3.28698 0.82173,-6.08092 2.62959,-8.38182c1.80784,-2.30088 4.27307,-3.45134 7.56005,-3.61567c3.12265,0 5.58788,1.31479 7.39572,3.61567c1.80786,2.3009 2.79394,5.25917 2.79394,9.03922c0,3.61567 -1.15044,6.57397 -2.95827,8.87484c-1.97219,2.3009 -4.27309,3.45134 -7.23138,3.45134c-3.12263,0 -5.58786,-1.31479 -7.39572,-3.61567c-1.80784,-2.3009 -2.79392,-5.42353 -2.79392,-9.36791zm71.49192,25.80282c8.21747,0 14.79143,-2.30088 20.05061,-6.57397c5.25917,-4.43742 7.88876,-10.51835 8.05311,-18.57146c-0.16437,-8.05311 -2.79394,-14.29839 -8.05311,-18.73581c-5.25917,-4.43744 -11.83314,-6.57399 -20.05061,-6.57399s-14.79143,2.3009 -20.05061,6.57399c-5.25917,4.43742 -7.88876,10.6827 -8.05311,18.73581c0.16437,8.05311 2.79394,14.29837 8.05311,18.57146s11.99749,6.57397 20.05061,6.57397zm0,-11.66879c-3.78003,-0.16437 -6.57397,-1.47915 -8.3818,-4.10873c-1.6435,-2.62959 -2.62961,-5.75224 -2.46525,-9.53226c0,-3.78003 0.82175,-6.90267 2.46525,-9.53226c1.64348,-2.62959 4.43742,-3.94438 8.3818,-4.10873c3.78003,0.16437 6.57397,1.47915 8.38182,4.10873c1.64348,2.62959 2.62959,5.75224 2.46523,9.53226c0,3.61569 -0.82175,6.90267 -2.46523,9.53226c-1.6435,2.62959 -4.43744,3.94438 -8.38182,4.10873zm70.34148,-38.29338c-0.82173,-0.16437 -1.80784,-0.32871 -2.79394,-0.32871c-0.98609,-0.16437 -1.97219,-0.16437 -2.95827,-0.16437c-3.61569,0 -6.57397,0.9861 -8.71051,2.79394c-2.3009,1.80784 -4.10873,4.27309 -5.58788,7.23136l-0.16437,0l0,-8.87484l-15.28448,0l0,48.31868l16.76362,0l0,-20.37932c0,-4.76613 0.9861,-8.54616 3.12265,-11.17574c2.13652,-2.62959 5.09482,-3.94438 9.0392,-3.94438l2.79394,0c0.98609,0 1.80784,0.16437 2.79394,0.49304l0.98609,-13.96968l0.00002,0.00002zm52.42742,29.58287l0,-3.12265c0.16437,-7.39572 -1.80784,-13.80533 -5.42353,-18.90017c-3.78003,-5.25917 -10.0253,-7.88876 -18.90017,-8.21745c-7.72441,0 -13.80533,2.30088 -18.57146,6.57397c-4.76613,4.43742 -7.23136,10.51835 -7.23136,18.57146c0.16437,8.05311 2.79394,14.29839 8.05311,18.57146c5.25917,4.43744 11.83314,6.57399 20.05061,6.73832c3.12263,0 6.24528,-0.16437 9.20355,-0.6574c2.95829,-0.49304 5.91657,-1.31479 8.54618,-2.30088l0,-11.83316c-2.46525,1.31481 -5.09484,2.3009 -7.56007,2.79394c-2.46525,0.6574 -4.93048,0.82175 -7.23136,0.82175c-4.10873,0 -7.39572,-0.6574 -9.86097,-2.13654c-2.46523,-1.47915 -3.94438,-3.78003 -4.43742,-7.06701l33.36289,0.16437l0,-0.00002zm-33.6916,-9.53226c0.16437,-2.79394 0.9861,-5.25917 2.46525,-7.06703c1.47915,-1.97219 3.78003,-2.95827 6.73832,-2.95827c3.28698,0 5.75222,0.98609 7.06701,2.95827c1.47915,1.97219 2.13654,4.27309 2.13654,7.06703l-18.40713,0zm-517.70015,29.25416c-7.23138,-1.97219 -12.81924,-5.25917 -17.42102,-10.35399c-4.6018,-5.09484 -6.73832,-9.69662 -8.05311,-17.91408c-2.46525,-16.10623 4.43742,-30.89766 17.74971,-37.30727c6.73832,-3.28698 15.77754,-4.93048 24.81674,-4.93048c5.58788,0 10.51835,0.9861 15.12014,1.80786l-1.47915,14.46273s-1.15044,-0.32871 -4.43744,-1.15044c-3.12263,-0.82175 -6.24526,-1.15046 -9.36791,-1.15046c-6.24526,0 -12.32618,1.6435 -16.27056,4.76613c-9.36791,7.23138 -9.36791,26.13153 0.32869,34.02031c5.91657,4.93046 16.59927,6.57397 26.13153,4.10871l4.43744,-1.15044l1.31479,14.62708c-2.79394,0.6574 -8.71051,1.80786 -15.94189,1.80786c-9.53224,0 -12.49054,-0.32871 -16.92796,-1.6435zm-37.47165,8.38182l606.44877,0l0,4.93046l-606.44877,0l0,-4.93046z" fill="#ffffff"/>
   <path stroke="null" d="m289.47469,344.62614c0,-0.82175 -0.16435,-1.47915 -0.6574,-1.6435c-0.49304,-0.32869 -0.9861,-0.49304 -1.80786,-0.49304c-2.62959,-0.49304 -4.10871,-1.47915 -4.60178,-2.95827c-0.49304,-1.6435 -0.6574,-3.61569 -0.6574,-6.08092l-2.62959,-50.61958c0,-1.80784 -0.16435,-3.28698 -0.49304,-4.60178c-0.32871,-1.15044 -1.47915,-1.80784 -3.61569,-1.97219c-1.80784,0 -3.12263,0.6574 -3.94438,1.64348c-0.82175,0.9861 -1.64348,2.3009 -2.62959,3.61569l-32.54114,45.6891l-5.42353,7.72441c-1.15046,1.6435 -2.3009,3.12265 -3.45134,4.6018c-1.31479,1.47913 -2.95829,2.30088 -4.93048,2.62959c-1.15044,0.16437 -2.13654,0.32869 -3.12263,0.6574c-0.9861,0.32869 -1.47915,1.15044 -1.6435,2.46523c0,0.82175 0.32871,1.31479 0.82175,1.47915c0.49304,0.16437 1.15044,0.32869 1.80784,0.32869c1.80786,0 3.78005,-0.16437 5.75224,-0.32869c1.97219,-0.16437 3.78003,-0.32871 5.75222,-0.32871c1.80786,0 3.45134,0.16437 5.09484,0.32871c1.64348,0.16437 3.45132,0.16437 5.09482,0.32869c0.82175,0 1.47915,-0.16437 2.13654,-0.49304c0.6574,-0.32871 0.98609,-0.9861 0.98609,-1.80784c-0.16435,-1.31479 -0.82173,-1.97219 -2.30088,-2.13654c-1.47915,-0.16437 -2.79394,-0.49304 -4.27309,-0.82175c-1.47915,-0.32869 -2.13654,-1.31479 -2.30088,-3.12263c0.32869,-1.80786 1.47913,-4.43744 3.61567,-7.72443c2.13654,-3.28698 3.61569,-5.75222 4.60178,-7.06701l20.21496,0c0.16435,2.13654 0.16435,4.27307 0.32871,6.40961c0.16435,2.13654 0.16435,4.27309 0.16435,6.40963c-0.16435,2.95827 -0.82175,4.76613 -2.3009,5.25917c-1.47915,0.49304 -2.95827,0.82175 -4.27307,0.82175c-1.47915,0 -2.3009,0.98609 -2.3009,2.46523c0,0.6574 0.16435,1.15044 0.6574,1.47915c0.49304,0.32869 0.9861,0.32869 1.6435,0.32869c2.79392,0 5.58786,-0.16437 8.3818,-0.32869c2.79394,-0.16437 5.58788,-0.32871 8.38182,-0.32871c1.80784,0 3.78003,0.16437 5.58786,0.16437c1.80786,0.16437 3.78005,0.16437 5.58788,0.16437c0.82175,0 1.6435,-0.16437 2.13654,-0.32871c0.82175,-0.32869 1.15044,-0.98609 1.15044,-1.80784l0,-0.00004zm-24.98109,-25.96718l-16.92798,0l16.10623,-23.50194l0.82175,23.50194zm171.90933,-38.45773c0,-0.6574 -0.16437,-0.9861 -0.6574,-1.31479c-0.32871,-0.32871 -0.82175,-0.49304 -1.47915,-0.49304c-0.98609,0 -1.80784,0 -2.62959,0.16437c-0.82175,0 -1.80784,0.16437 -2.62959,0.32871c-2.3009,0.16437 -4.43742,0.32869 -6.73832,0.49304c-2.3009,0 -4.60178,0.16437 -6.90267,0c-1.64348,0 -3.28698,-0.16437 -5.09482,-0.16437c-1.6435,-0.16437 -3.28698,-0.16437 -5.09484,-0.16437c-0.82173,0 -1.47913,0.16437 -2.13652,0.6574c-0.6574,0.49304 -0.9861,1.15044 -0.9861,1.97219c0.32871,1.47913 1.47915,2.30088 3.45134,2.13654c1.97219,-0.16437 3.12263,0.82173 3.45134,2.62959c0,0.49304 0,0.98609 -0.16437,1.64348c-0.16437,0.49304 -0.32869,0.9861 -0.49304,1.6435l-12.81924,44.3743c-0.49304,2.13652 -0.9861,3.94438 -1.6435,5.42353c-0.6574,1.47913 -1.97219,2.46523 -4.10873,2.95827c-0.98609,0.16437 -2.13652,0.32871 -3.45132,0.6574c-1.31479,0.32871 -2.13654,1.15044 -2.13654,2.3009c0,0.6574 0.32869,1.15044 0.82175,1.47915c0.49304,0.32869 1.15044,0.49304 1.80784,0.49304c2.13654,0 4.43742,-0.16437 6.57397,-0.32871c2.3009,-0.16437 4.43742,-0.32869 6.73832,-0.32869c2.46523,0 4.76613,0.16437 7.23136,0.32869c2.46525,0.16437 4.76613,0.16437 7.23136,0.16437c0.9861,0 2.13654,0 3.45134,-0.16437c1.31479,-0.16437 1.97219,-0.82175 2.13654,-2.13654c-0.16437,-1.31479 -0.82175,-1.97219 -1.97219,-2.13652c-1.15044,-0.16437 -2.46523,-0.32871 -3.61569,-0.6574c-1.15044,-0.32871 -1.80784,-1.47915 -1.97219,-3.45134c0,-0.82175 0.16437,-1.6435 0.32871,-2.46525c0.16437,-0.82173 0.49304,-1.64348 0.6574,-2.46523l12.81924,-44.53866c0.49304,-1.80784 0.98609,-3.12263 1.64348,-3.94438c0.6574,-0.82173 1.97219,-1.47913 3.78005,-1.80784c0.98609,-0.16437 1.97219,-0.32871 3.12263,-0.82175c0.82175,-0.6574 1.31479,-1.47915 1.47915,-2.46523l0.00002,0.00002zm66.72581,0.49304c-0.16437,-1.15044 -1.31481,-1.80784 -3.287,-2.30088c-2.13652,-0.49306 -4.27307,-0.6574 -6.57397,-0.82175c-2.30088,-0.16437 -3.78003,-0.16437 -4.60178,-0.16437c-8.54616,0 -17.42102,1.80784 -26.62457,5.09482c-9.20357,3.45134 -17.09233,8.38182 -23.6663,14.95579c-6.57397,6.57397 -10.0253,14.62708 -10.18966,24.15934c0.16437,6.08092 1.80784,11.01141 5.25917,14.95579c3.45134,3.94438 7.56007,6.90267 12.81924,8.87486c5.09484,1.97219 10.35401,2.95827 15.94187,2.95827c3.287,0 6.57399,-0.16437 10.02532,-0.6574c3.28698,-0.32869 6.57397,-0.98609 9.86095,-1.80784c1.15044,-0.16437 2.30088,-0.49304 3.12263,-0.9861c0.82175,-0.32869 1.47915,-1.15044 1.97219,-2.46523c0.82175,-2.46523 1.6435,-5.09482 2.46525,-7.72441c0.6574,-2.62959 1.47913,-5.25919 2.13652,-7.72443c1.15046,-3.61567 2.62959,-5.91657 4.27309,-6.57397c1.6435,-0.6574 3.12263,-0.9861 4.43742,-0.9861c1.31479,0 1.97219,-0.82173 1.97219,-2.46523c0,-0.6574 -0.32869,-1.15044 -0.82173,-1.47915c-0.49306,-0.32869 -1.15046,-0.49304 -1.6435,-0.49304c-2.46523,0 -5.09482,0.16437 -7.56007,0.32871c-2.62959,0.16437 -5.09482,0.32869 -7.72441,0.32869c-2.46523,0 -4.93048,-0.16437 -7.23136,-0.32869c-2.46525,-0.16437 -4.93048,-0.32871 -7.23138,-0.32871c-0.82173,0 -1.64348,0.16437 -2.30088,0.49304c-0.82175,0.32871 -1.15044,0.9861 -1.15044,1.80786c0.16437,1.15044 0.82173,1.80784 1.97219,1.97219c1.31479,0.16437 2.46523,0.32869 3.78003,0.82173c1.31479,0.32871 1.97219,1.47915 1.97219,3.287c-0.16437,1.97219 -0.6574,4.43742 -1.80784,7.88876c-0.9861,3.28698 -1.97219,5.91657 -2.62959,8.05311c-0.32871,1.47915 -0.9861,2.62959 -1.6435,3.28698c-0.6574,0.6574 -1.80784,0.98609 -3.45134,0.98609c-5.91657,-0.16437 -10.51835,-1.97219 -13.47664,-5.75222c-3.12263,-3.78003 -4.60178,-8.38182 -4.60178,-14.13404c0,-5.25917 1.15046,-10.51835 3.28698,-15.44883c2.13654,-4.93048 5.09484,-9.36791 8.71051,-13.14793c3.61569,-3.61569 8.21747,-6.73832 13.47664,-9.36791c5.42353,-2.62961 10.6827,-3.9444 15.94189,-4.10873c2.46523,0 3.94438,0.49304 4.60178,1.47913c0.49304,0.9861 0.82173,2.62961 0.6574,4.93048c0,0.6574 0,1.15044 -0.16437,1.80784c0,0.6574 -0.16437,1.15046 -0.16437,1.80786c0,0.98609 0.16437,1.97219 0.49304,2.79394c0.32871,0.82173 1.15046,1.31479 2.3009,1.31479c1.31479,-0.16437 2.13654,-0.6574 2.79394,-1.80786c0.6574,-1.15044 0.98609,-2.30088 1.31479,-3.28698c0.32869,-0.82175 0.82175,-2.46523 1.64348,-5.09482c0.6574,-2.62959 1.15046,-4.27309 1.31481,-4.93048l0.00004,0.00002zm58.17963,63.93187c0,-0.82175 -0.16437,-1.47915 -0.6574,-1.6435c-0.49304,-0.32869 -0.9861,-0.49304 -1.80784,-0.49304c-2.62961,-0.49304 -4.10873,-1.47915 -4.6018,-2.95827c-0.49304,-1.6435 -0.6574,-3.61569 -0.6574,-6.08092l-2.62959,-50.61958c0,-1.80784 -0.16437,-3.28698 -0.49304,-4.60178c-0.32871,-1.15044 -1.47915,-1.80784 -3.61569,-1.97219c-1.80784,0 -3.12263,0.6574 -3.94438,1.64348c-0.82175,0.9861 -1.64348,2.3009 -2.62959,3.61569l-32.54114,45.6891l-5.42353,7.72441c-1.15046,1.6435 -2.3009,3.12265 -3.45134,4.6018c-1.31479,1.47913 -2.95829,2.30088 -4.93048,2.62959c-1.15044,0.16437 -2.13654,0.32869 -3.12263,0.6574c-0.9861,0.32869 -1.47915,1.15044 -1.6435,2.46523c0,0.82175 0.32871,1.31479 0.82175,1.47915c0.49304,0.16437 1.15044,0.32869 1.80784,0.32869c1.80786,0 3.78005,-0.16437 5.75224,-0.32869c1.97219,-0.16437 3.78003,-0.32871 5.75222,-0.32871c1.80786,0 3.45134,0.16437 5.09484,0.32871c1.80784,0.16437 3.45134,0.16437 5.09482,0.32869c0.82175,0 1.47915,-0.16437 2.13654,-0.49304c0.6574,-0.32871 0.98609,-0.9861 0.98609,-1.80784c-0.16437,-1.31479 -0.82173,-1.97219 -2.30088,-2.13654c-1.47915,-0.16437 -2.79394,-0.49304 -4.27309,-0.82175c-1.47915,-0.32869 -2.13654,-1.31479 -2.30088,-3.12263c0.32869,-1.80786 1.47913,-4.43744 3.61567,-7.72443c2.13654,-3.28698 3.61569,-5.75222 4.60178,-7.06701l20.37932,0c0.16437,2.13654 0.16437,4.27307 0.32871,6.40961c0.16437,2.13654 0.16437,4.27309 0.16437,6.40963c-0.16437,2.95827 -0.82173,4.76613 -2.30088,5.25917c-1.47915,0.49304 -2.95829,0.82175 -4.27309,0.82175c-1.47915,0 -2.30088,0.98609 -2.30088,2.46523c0,0.6574 0.16437,1.15044 0.6574,1.47915c0.49304,0.32869 0.98609,0.32869 1.64348,0.32869c2.79394,0 5.58788,-0.16437 8.38182,-0.32869c2.79392,-0.16437 5.58786,-0.32871 8.3818,-0.32871c1.80784,0 3.78005,0.16437 5.58788,0.16437c1.80784,0.16437 3.78003,0.16437 5.58786,0.16437c0.82175,0 1.6435,-0.16437 2.13654,-0.32871c0.6574,-0.32869 0.9861,-0.98609 0.9861,-1.80784l-0.00004,-0.00004zm-25.14545,-25.96718l-16.92796,0l16.10623,-23.50194l0.82173,23.50194zm-142.8195,-38.12904c0,-0.6574 -0.16437,-1.15044 -0.6574,-1.47913c-0.32869,-0.32871 -0.82175,-0.49306 -1.47915,-0.49306c-2.13654,0 -4.27307,0 -6.40961,0.16437s-4.27309,0.16437 -6.40963,0.16437c-1.15044,0 -2.79394,-0.16437 -5.09482,-0.16437c-2.3009,0 -3.78003,0.16437 -4.60178,0.82175c-0.16437,0.16437 -0.32871,0.49304 -0.32871,0.6574c-0.16437,0.32869 -0.32869,0.49304 -0.32869,0.6574l-27.93939,42.23776l-1.15044,-41.58036c0,-0.82175 0,-1.47915 -0.16437,-1.97219c-0.16437,-0.6574 -0.6574,-0.82175 -1.47913,-0.9861c-2.3009,0 -4.76613,0 -7.06703,0.16437l-7.06701,0c-1.31479,0 -2.62961,-0.16437 -3.9444,-0.16437c-1.31479,-0.16437 -2.62959,-0.16437 -3.94438,-0.16437c-0.82173,0 -1.64348,0.16437 -2.46523,0.32869c-0.82175,0.32871 -1.15044,0.82175 -1.31479,1.80784c0.32869,1.6435 1.6435,2.46525 3.78003,2.3009c2.3009,0 3.45134,0.82175 3.78005,2.3009c0,1.15044 -0.32871,2.30088 -0.6574,3.45132c-0.49306,1.15046 -0.82175,2.3009 -1.15046,3.287c-2.46523,6.90265 -4.93046,13.64098 -7.39572,20.54365c-2.46523,6.90267 -4.93046,13.64099 -7.56005,20.54365c-0.9861,2.95829 -1.97219,4.93048 -2.95829,6.08092c-0.98609,1.15046 -2.95827,1.97219 -6.08092,2.46525c-0.82175,0.16437 -1.64348,0.32869 -2.30088,0.82173c-0.6574,0.32871 -0.9861,0.9861 -0.9861,1.97219c0,0.82175 0.32871,1.31479 0.82175,1.6435c0.49304,0.16437 1.15044,0.32869 1.97219,0.32869c1.80784,0 3.61569,0 5.42353,-0.16437c1.80784,-0.16437 3.61569,-0.16437 5.42353,-0.16437c1.64348,0 3.28698,0.16437 4.93048,0.32869c1.64348,0.16437 3.28696,0.16437 4.93046,0.32871c0.82175,0 1.47915,-0.16437 2.13654,-0.6574c0.6574,-0.32871 0.98609,-0.9861 1.15044,-1.80784c-0.16437,-1.47915 -0.82175,-2.13654 -2.30088,-2.3009c-1.47915,-0.16437 -2.95829,-0.32869 -4.43744,-0.6574c-1.47913,-0.32869 -2.30088,-1.64348 -2.30088,-3.94438c0.16435,-3.12263 1.31479,-7.88876 3.45132,-14.29839c2.13654,-6.24526 4.27309,-12.49054 6.73832,-18.40711c2.3009,-5.91659 3.9444,-9.86097 4.76613,-11.99749l1.15046,48.31868c0,1.47913 0.16437,2.62959 0.49304,3.61567c0.32869,0.82175 1.31479,1.31479 2.95827,1.31479c1.6435,0 2.95829,-0.6574 3.9444,-1.80784c0.98609,-1.15044 1.80784,-2.3009 2.62959,-3.61569l32.54114,-47.82562l-10.6827,40.4299c-0.32869,1.80786 -0.82175,3.45134 -1.47915,5.25917c-0.6574,1.80786 -1.97219,2.79394 -3.78003,3.287c-1.15044,0 -2.3009,0.32869 -3.61569,0.49304c-1.31479,0.32869 -2.13652,1.15044 -2.30088,2.46523c0,0.82175 0.32869,1.31479 0.82175,1.6435c0.49304,0.32869 1.15044,0.49304 1.80784,0.49304c2.30088,0 4.76613,-0.16437 7.06701,-0.32871c2.3009,-0.16437 4.76613,-0.32869 7.06703,-0.32869c2.46523,0 4.93046,0.16437 7.23136,0.32869c2.46523,0.16437 4.93048,0.32871 7.23136,0.32871c0.9861,0 1.6435,-0.16437 2.46525,-0.49304c0.6574,-0.32871 1.15044,-0.9861 1.15044,-1.97219c-0.16437,-1.15046 -0.6574,-1.97219 -1.80784,-2.13654c-1.15046,-0.16437 -2.3009,-0.49304 -3.45134,-0.82175c-1.15046,-0.32869 -1.80786,-1.31479 -1.80786,-3.12263c0,-1.15046 0.16437,-2.46525 0.49306,-3.78005c0.32869,-1.31479 0.49304,-2.46523 0.82173,-3.61567l10.35401,-41.58036c0.32871,-1.80786 0.82175,-3.28698 1.47915,-4.27309c0.6574,-0.98609 1.80784,-1.6435 3.78003,-1.97219c0.9861,0 1.97219,-0.32871 2.95829,-0.6574c0.49304,0.32869 1.15044,-0.49304 1.15044,-1.6435l0.00002,0.00008z" fill="#ffffff"/>
   <path stroke="null" d="m726.31501,288.58303c-16.76362,-0.49304 -13.96968,32.37681 -9.36791,41.08732c1.97219,3.78005 4.76613,5.75224 9.36791,5.75224s7.88876,-1.80786 10.0253,-5.58788c4.76613,-8.38182 6.90267,-40.75861 -10.0253,-41.25167zm10.84705,32.54116c-0.32871,2.3009 -1.15044,5.58788 -2.3009,7.72441c-1.80784,3.287 -4.60178,4.6018 -8.3818,4.6018c-3.78005,0 -5.91657,-1.47915 -7.72443,-4.76613c-1.15044,-2.13654 -1.80784,-5.25917 -2.30088,-7.56007c-0.6574,-3.61569 -0.9861,-7.39572 -0.9861,-11.01141c0,-5.58786 0.9861,-14.79143 6.08092,-18.24275c1.47915,-0.9861 3.12263,-1.31481 4.93048,-1.31481c9.20355,0.16437 11.17574,12.16185 11.50445,19.39323c0,3.61567 -0.32871,7.39572 -0.82175,11.17574z" fill="#ffffff"/>
   <path stroke="null" d="m744.88647,287.1039c-4.43742,-6.40963 -10.6827,-9.53226 -18.40711,-9.53226c-7.72443,0 -13.80535,3.12263 -18.24277,9.53226c-5.09482,7.06701 -6.40961,16.27056 -6.40961,24.98107c0,8.54618 1.47913,17.74973 6.40961,24.98109c4.43742,6.24528 10.6827,9.53226 18.24277,9.53226c7.72441,0 13.80533,-3.12263 18.24277,-9.36791c5.09482,-7.06703 6.40961,-16.10623 6.40961,-24.48805c0.16437,-8.87484 -1.15044,-18.40711 -6.24528,-25.63847zm-1.64348,48.81172c-4.10873,5.75222 -9.69662,8.54616 -16.76362,8.54616c-7.06703,0 -12.65489,-2.95827 -16.76362,-8.71051c-4.10873,-5.75222 -6.08092,-13.80533 -6.08092,-23.83063c0,-10.0253 1.97219,-18.07842 6.08092,-23.83065c4.10873,-5.75222 9.6966,-8.71051 16.76362,-8.71051c7.23136,0 12.81924,2.95829 16.76362,8.71051c3.94438,5.75224 5.91657,13.96968 5.91657,24.32369c0.16437,10.0253 -1.80784,17.91406 -5.91657,23.50194z" fill="#ffffff"/>
   <path stroke="null" d="m746.52998,285.95345c-4.76613,-6.90265 -11.50445,-10.35399 -19.88625,-10.35399c-8.38182,0 -15.12014,3.45134 -19.88627,10.18966c-5.25917,7.39572 -6.73832,17.09231 -6.73832,25.96718c0,9.0392 1.47915,18.57146 6.73832,26.13153c4.76613,6.73832 11.50445,10.35401 19.88627,10.35401c8.21745,0 14.95577,-3.45134 19.7219,-10.18966c5.25917,-7.39572 6.73832,-16.76362 6.73832,-25.63849s-1.31479,-18.90017 -6.57397,-26.46024zm-1.80784,51.11262c-4.43744,6.24528 -10.6827,9.36791 -18.24277,9.36791c-7.72443,0 -13.80535,-3.12263 -18.24277,-9.53226c-5.09482,-7.23136 -6.40961,-16.43492 -6.40961,-24.98107c0,-8.54618 1.47913,-17.74973 6.40961,-24.98109c4.43742,-6.24528 10.6827,-9.53226 18.24277,-9.53226c7.72441,0 13.96968,3.12263 18.40711,9.53226c5.09484,7.23136 6.40963,16.76362 6.40963,25.47413c0,8.54616 -1.47915,17.58537 -6.57397,24.65238z" fill="#ffffff"/>
   <path stroke="null" d="m726.31501,290.39089c-1.80784,0 -3.45134,0.32869 -4.93048,1.31479c-5.09482,3.45134 -6.08092,12.65489 -6.08092,18.24277c0,3.61567 0.32871,7.39572 0.9861,11.01139c0.49304,2.3009 1.15044,5.42353 2.3009,7.56007c1.80784,3.28698 3.94438,4.76613 7.72441,4.76613s6.57397,-1.31479 8.38182,-4.60178c1.15044,-2.13654 1.97219,-5.25917 2.30088,-7.72443c0.6574,-3.78003 0.82175,-7.56007 0.6574,-11.3401c-0.16437,-7.06701 -2.13654,-18.90017 -11.3401,-19.22886zm6.90267,36.32119c-1.6435,3.45132 -4.27309,4.43742 -6.73832,4.43742c-2.62959,0 -4.93048,-0.49304 -6.57397,-4.27309c-1.47915,-3.45132 -2.46525,-9.86095 -2.46525,-14.95577c0,-6.24528 0.6574,-12.3262 2.79394,-15.77754c1.47915,-2.46523 4.10873,-3.45134 6.08092,-3.45134c2.13654,0 4.60178,1.47915 6.08092,4.10873c1.97219,3.45134 2.79394,9.03922 2.79394,15.12014c0.16437,5.42353 -0.32871,11.3401 -1.97219,14.79143z" fill="#ffffff"/>
   <path stroke="null" d="m743.40735,288.08999c-3.9444,-5.75222 -9.53226,-8.71051 -16.76362,-8.71051c-7.06703,0 -12.65491,2.95829 -16.76362,8.71051c-4.10873,5.75224 -6.08092,13.64099 -6.08092,23.83065c0,10.18964 1.97219,18.07842 6.08092,23.83063c4.10871,5.75224 9.6966,8.71051 16.76362,8.71051c7.06701,0 12.65489,-2.79394 16.76362,-8.54616c4.10871,-5.75224 6.08092,-13.47664 6.08092,-23.50194c-0.16437,-10.35401 -2.13654,-18.57146 -6.08092,-24.32369zm-6.90267,41.58036c-2.13654,3.78005 -5.42353,5.58788 -10.0253,5.58788s-7.39572,-1.97219 -9.36791,-5.75224c-4.60178,-8.54616 -7.39572,-41.41601 9.36791,-41.0873c16.76362,0.6574 14.62708,33.03419 10.0253,41.25165z" fill="#ffffff"/>
   <path stroke="null" d="m666.32753,288.58303c-16.76362,-0.49304 -13.96968,32.37681 -9.36791,41.08732c1.97219,3.78005 4.76613,5.75224 9.36791,5.75224c4.6018,0 7.88878,-1.80786 10.0253,-5.58788c4.76613,-8.38182 6.73832,-40.75861 -10.0253,-41.25167zm10.6827,32.54116c-0.32869,2.3009 -1.15044,5.58788 -2.30088,7.72441c-1.80784,3.287 -4.60178,4.6018 -8.38182,4.6018l-0.6574,0c-3.28698,-0.16437 -5.25917,-1.6435 -6.90265,-4.76613c-1.15046,-2.13654 -1.80786,-5.25917 -2.3009,-7.56007c-0.6574,-3.61569 -0.98609,-7.39572 -0.98609,-11.01141c0,-5.58786 0.98609,-14.79143 6.08092,-18.24275c1.47913,-0.9861 3.12263,-1.31481 4.93046,-1.31481c9.20355,0.32871 11.17576,12.16185 11.50445,19.39323c0,3.61567 -0.32869,7.39572 -0.9861,11.17574z" fill="#ffffff"/>
   <path stroke="null" d="m684.89901,287.1039c-4.43744,-6.40963 -10.6827,-9.53226 -18.40713,-9.53226c-7.72441,0 -13.80533,3.12263 -18.24277,9.53226c-5.09482,7.06701 -6.40961,16.27056 -6.40961,24.98107c0,8.54618 1.47915,17.74973 6.40961,24.98109c4.43744,6.24528 10.6827,9.53226 18.24277,9.53226c7.72443,0 13.80535,-3.12263 18.24277,-9.36791c5.09482,-7.06703 6.40961,-16.10623 6.40961,-24.48805c0,-8.87484 -1.31479,-18.40711 -6.24526,-25.63847zm-1.6435,48.81172c-4.10873,5.75222 -9.6966,8.54616 -16.76362,8.54616c-7.06701,0 -12.65489,-2.95827 -16.76362,-8.71051c-4.10873,-5.75222 -6.08092,-13.80533 -6.08092,-23.83063c0,-10.0253 1.97219,-18.07842 6.08092,-23.83065c4.10873,-5.75222 9.69662,-8.71051 16.76362,-8.71051c7.23136,0 12.81924,2.95829 16.76362,8.71051c3.94438,5.75224 5.91657,13.96968 5.91657,24.32369c0.16437,10.0253 -1.97219,17.91406 -5.91657,23.50194z" fill="#ffffff"/>
   <path stroke="null" d="m666.32753,290.39089c-1.80784,0 -3.45132,0.32869 -4.93046,1.31479c-5.09484,3.45134 -6.08092,12.65489 -6.08092,18.24277c0,3.61567 0.32869,7.39572 0.98609,11.01139c0.49306,2.3009 1.15046,5.42353 2.3009,7.56007c1.64348,3.12263 3.61569,4.60178 6.90267,4.76613l0.6574,0c3.78003,0 6.57397,-1.31479 8.3818,-4.60178c1.15044,-2.13654 1.97219,-5.25917 2.3009,-7.72443c0.6574,-3.78003 0.82175,-7.56007 0.6574,-11.3401c0,-7.06701 -1.97219,-18.90017 -11.17576,-19.22886zm7.06703,36.32119c-1.6435,3.45132 -4.27309,4.43742 -6.73832,4.43742c-2.62959,0 -4.93048,-0.49304 -6.57397,-4.27309c-1.47915,-3.45132 -2.46525,-9.86095 -2.46525,-14.95577c0,-6.24528 0.6574,-12.3262 2.79394,-15.77754c1.47915,-2.46523 4.10873,-3.45134 6.08092,-3.45134c2.13654,0 4.60178,1.47915 6.08092,4.10873c1.97219,3.45134 2.79394,9.03922 2.79394,15.12014c0.16437,5.42353 -0.32871,11.3401 -1.97219,14.79143z" fill="#ffffff"/>
   <path stroke="null" d="m686.37815,285.95345c-4.76613,-6.90265 -11.50445,-10.35399 -19.88627,-10.35399c-8.3818,0 -15.12012,3.45134 -19.88625,10.18966c-5.25917,7.39572 -6.73832,17.09231 -6.73832,25.96718c0,9.0392 1.47915,18.57146 6.73832,26.13153c4.76613,6.73832 11.50445,10.35401 19.88625,10.35401c8.21747,0 14.95579,-3.45134 19.72192,-10.18966c5.25917,-7.39572 6.73832,-16.76362 6.73832,-25.63849c0.16437,-8.87486 -1.31479,-18.90017 -6.57397,-26.46024zm-1.6435,51.11262c-4.43742,6.24528 -10.6827,9.36791 -18.24277,9.36791c-7.72441,0 -13.80533,-3.12263 -18.24277,-9.53226c-5.09482,-7.23136 -6.40961,-16.43492 -6.40961,-24.98107c0,-8.54618 1.47915,-17.74973 6.40961,-24.98109c4.43744,-6.24528 10.6827,-9.53226 18.24277,-9.53226c7.72443,0 13.96968,3.12263 18.40713,9.53226c5.09482,7.23136 6.40961,16.76362 6.40961,25.47413c-0.16437,8.54616 -1.47915,17.58537 -6.57397,24.65238z" fill="#ffffff"/>
   <path stroke="null" d="m683.25551,288.08999c-3.94438,-5.75222 -9.53226,-8.71051 -16.76362,-8.71051c-7.06701,0 -12.65489,2.95829 -16.76362,8.71051c-4.10873,5.75224 -6.08092,13.64099 -6.08092,23.83065c0,10.18964 1.97219,18.07842 6.08092,23.83063c4.10873,5.75224 9.69662,8.71051 16.76362,8.71051c7.06703,0 12.65489,-2.79394 16.76362,-8.54616c4.10873,-5.75224 6.08092,-13.47664 6.08092,-23.50194c0,-10.35401 -1.97219,-18.57146 -6.08092,-24.32369zm-6.90267,41.58036c-2.13652,3.78005 -5.42351,5.58788 -10.0253,5.58788c-4.60178,0 -7.39572,-1.97219 -9.36791,-5.75224c-4.60178,-8.54616 -7.39572,-41.41601 9.36791,-41.0873c16.76362,0.6574 14.79143,33.03419 10.0253,41.25165z" fill="#ffffff"/>
   <path stroke="null" d="m607.98354,310.93454c-6.90265,-0.32869 -12.65489,5.09484 -12.98358,11.99749c-0.32871,6.90267 5.09482,12.65489 11.99749,12.9836c6.90265,0.32869 12.65489,-5.09484 12.98358,-11.99749c0.16437,-6.90267 -5.09482,-12.65489 -11.99749,-12.9836zm-0.98609,23.33759c-5.91657,-0.16437 -10.51837,-5.25917 -10.35401,-11.17574c0.16437,-5.91657 5.25917,-10.51835 11.17576,-10.35401c5.91657,0.16437 10.51835,5.25919 10.35399,11.17576c-0.16437,5.91657 -5.25917,10.51835 -11.17574,10.35399z" fill="#ffffff"/>
   <path stroke="null" d="m623.43237,306.49711c-2.62959,-2.3009 -5.75222,-4.10873 -9.0392,-5.09484c-1.97219,-0.6574 -4.10873,-0.98609 -6.24528,-1.15044l-3.28698,0c1.15044,-2.46523 2.62959,-4.93048 3.94438,-7.23136c1.31479,-2.13654 2.62959,-4.10873 3.94438,-6.08092c1.15044,-1.6435 2.3009,-3.12263 3.61569,-4.60178l2.13654,-2.3009l-12.9836,-2.13654l-0.6574,0.6574c-2.46523,2.62959 -4.76613,5.75224 -6.73832,8.71051c-2.62959,3.94438 -4.93048,8.05311 -7.06701,12.3262c-3.287,6.57397 -7.72443,17.09233 -7.06703,24.48805c0.32871,12.16183 10.0253,22.0228 22.18715,22.51584c3.12263,0.16437 6.24528,-0.32871 9.03922,-1.47915c2.79392,-0.98609 5.42351,-2.62959 7.56005,-4.60178c4.43744,-4.10873 7.06703,-9.69662 7.39572,-15.77752c0,-0.6574 0.16437,-1.15046 0.16437,-1.80786c0.16437,-3.45134 -0.49304,-6.73832 -1.97219,-9.6966c-0.9861,-2.46525 -2.79394,-4.76613 -4.93048,-6.73832l-0.00002,0zm5.25917,18.07842c-0.6574,11.66879 -10.51835,20.87236 -22.35149,20.3793c-11.3401,-0.49304 -20.37932,-9.6966 -20.54367,-20.87234c-1.15044,-12.16185 12.9836,-36.6499 20.37932,-44.20997l9.03922,1.47915c-4.10873,4.60178 -10.51837,14.95579 -13.31231,21.3654c1.15046,-0.32869 2.3009,-0.49304 3.45134,-0.6574c0.9861,-0.16437 1.80786,-0.16437 2.79394,0c1.97219,0.16437 3.94438,0.49306 5.75222,0.9861c3.12265,0.98609 6.08092,2.62959 8.38182,4.76613c4.27309,3.78003 6.73832,9.20355 6.57397,15.12012c0,0.6574 0,1.15046 -0.16437,1.6435l0.00002,0z" fill="#ffffff"/>
   <path stroke="null" d="m630.17069,312.41368c-1.31479,-2.79394 -3.28698,-5.25917 -5.58786,-7.39572c-2.79394,-2.46523 -6.08092,-4.43742 -9.69662,-5.58788c-2.13654,-0.6574 -4.43742,-1.15044 -6.73832,-1.15044l-0.32869,0c0.82173,-1.47915 1.64348,-2.95829 2.46523,-4.27309c1.15044,-1.97219 2.46523,-3.94438 3.94438,-5.91657c1.15044,-1.47915 2.13654,-3.12263 3.45134,-4.43742l4.27309,-4.93048l-17.42104,-2.79394l-1.31479,1.31479c-2.62959,2.62959 -4.93046,5.91657 -6.90265,9.03922c-2.62959,3.94438 -5.09484,8.21747 -7.23138,12.49054c-3.45132,7.06703 -7.88876,17.58537 -7.23136,25.47413c0.49306,13.14795 10.84705,23.6663 23.99499,24.15934c3.287,0.16437 6.73832,-0.32869 9.86097,-1.64348c2.95827,-1.15046 5.75222,-2.79394 8.21747,-5.09484c4.76611,-4.43742 7.72441,-10.51835 8.05311,-16.92796c0,-0.6574 0.16437,-1.31479 0.16437,-1.80786c0.49306,-3.45134 -0.32869,-7.06701 -1.97219,-10.51835l-0.00004,0zm0.32871,12.3262c-0.32871,6.0809 -2.95829,11.66879 -7.39572,15.77752c-2.13654,1.97219 -4.76613,3.61569 -7.56007,4.60178c-2.95829,1.15044 -5.91657,1.6435 -9.0392,1.47915c-12.16185,-0.49304 -21.85846,-10.35401 -22.18715,-22.51584c-0.6574,-7.56007 3.78003,-17.91408 7.06701,-24.48805c2.13654,-4.27309 4.43742,-8.38182 7.06703,-12.3262c1.97219,-2.95827 4.27307,-6.24526 6.7383,-8.71051l0.6574,-0.6574l12.9836,2.13654l-2.13654,2.3009c-1.31479,1.47915 -2.46523,3.12263 -3.61567,4.60178c-1.31479,1.97219 -2.62959,3.94438 -3.94438,6.08092c-1.47915,2.30088 -2.79394,4.76613 -3.9444,7.23136l0.32871,0c0.9861,-0.16437 1.97219,-0.16437 2.95829,0c2.13652,0.16437 4.27307,0.49304 6.24526,1.15044c3.28698,0.9861 6.40963,2.79394 9.03922,5.09484c2.13654,1.97219 3.78003,4.27307 5.09482,6.73832c1.47915,2.95827 2.13654,6.40961 1.97219,9.6966c-0.32869,0.6574 -0.32869,1.31479 -0.32869,1.80786z" fill="#ffffff"/>
   <path stroke="null" d="m613.90011,303.04578c-1.80784,-0.6574 -3.78003,-0.9861 -5.75222,-0.9861l-2.79394,0c-1.15044,0.16437 -2.30088,0.32871 -3.45134,0.6574c2.62959,-6.57397 9.20357,-16.76362 13.31231,-21.3654l-9.03922,-1.47915c-7.39572,7.72443 -21.52975,32.04812 -20.37932,44.20997c0.32871,11.17574 9.20357,20.3793 20.54367,20.87234c11.83314,0.49306 21.69409,-8.54616 22.35149,-20.3793c0,-0.49304 0.16437,-1.15044 0.16437,-1.6435c0.16437,-5.91657 -2.30088,-11.3401 -6.57397,-15.12012c-2.3009,-2.13654 -5.09482,-3.78005 -8.38182,-4.76613l-0.00002,0zm-7.06701,32.86985c-6.90267,-0.32871 -12.3262,-6.08092 -11.99749,-12.9836c0.32869,-6.90265 6.08092,-12.32618 12.9836,-11.99749c6.90265,0.32871 12.32618,6.08092 11.99749,12.9836c-0.16437,6.90265 -6.08092,12.32618 -12.9836,11.99749z" fill="#ffffff"/>
   <path stroke="null" d="m607.81921,312.74237c-5.91659,-0.16437 -11.01141,4.43744 -11.17576,10.35401c-0.16437,5.91657 4.43744,11.01141 10.35401,11.17574c5.91657,0.16437 11.01139,-4.43742 11.17574,-10.35399c0.32871,-5.91657 -4.43742,-11.01141 -10.35399,-11.17576zm-0.49306,19.39323c-4.76613,0 -8.54616,-3.78005 -8.54616,-8.54618c0,-4.76613 3.78003,-8.54616 8.54616,-8.54616c4.76613,0 8.54618,3.78003 8.54618,8.54616c0,4.76613 -3.9444,8.54618 -8.54618,8.54618z" fill="#ffffff"/>
  </g>
 </g>

</svg>