<?xml version="1.0" encoding="UTF-8" standalone="no"?>
<svg
   version="1.0"
   width="474pt"
   height="197.39999pt"
   viewBox="0 0 474 197.39999"
   preserveAspectRatio="xMidYMid meet"
   id="svg18"
   sodipodi:docname="raizing(1).svg"
   inkscape:version="1.1.2 (0a00cf5339, 2022-02-04)"
   xmlns:inkscape="http://www.inkscape.org/namespaces/inkscape"
   xmlns:sodipodi="http://sodipodi.sourceforge.net/DTD/sodipodi-0.dtd"
   xmlns="http://www.w3.org/2000/svg"
   xmlns:svg="http://www.w3.org/2000/svg">
  <defs
     id="defs22" />
  <sodipodi:namedview
     id="namedview20"
     pagecolor="#ffffff"
     bordercolor="#666666"
     borderopacity="1.0"
     inkscape:pageshadow="2"
     inkscape:pageopacity="0.0"
     inkscape:pagecheckerboard="true"
     inkscape:document-units="pt"
     showgrid="false"
     fit-margin-top="0"
     fit-margin-left="0"
     fit-margin-right="0"
     fit-margin-bottom="0"
     inkscape:zoom="2.0374074"
     inkscape:cx="324.18652"
     inkscape:cy="183.07581"
     inkscape:window-width="2560"
     inkscape:window-height="1440"
     inkscape:window-x="1920"
     inkscape:window-y="0"
     inkscape:window-maximized="1"
     inkscape:current-layer="svg18" />
  <g
     transform="matrix(0.1,0,0,-0.1,0,197)"
     fill="#000000"
     stroke="none"
     id="g16"
     style="fill:#cccccc;stroke:none;stroke-opacity:1">
    <path
       d="M 1588,1811 1480,1655 V 1121 586 l 30,47 c 16,26 31,47 33,47 2,0 3,-36 3,-80 -1,-44 1,-80 5,-80 4,0 31,38 60,85 30,47 56,85 59,85 3,0 4,-129 2,-287 -1,-158 0,-294 3,-302 4,-11 15,-1 35,34 l 29,50 3,-92 3,-92 103,163 102,164 -2,618 -3,618 -30,-45 -30,-44 -5,84 -5,84 -52,-84 -53,-84 v 203 c 0,111 -3,202 -8,202 -4,0 -18,-18 -32,-40 l -25,-41 -5,84 -5,84 z m 118,-470 c 14,19 52,78 85,132 34,53 63,97 65,97 2,0 4,-260 4,-578 V 414 l -77,-127 c -43,-69 -81,-127 -85,-127 -4,0 -7,176 -8,392 0,215 -2,393 -3,394 -1,1 -43,-62 -92,-141 l -90,-143 -3,491 -2,492 87,129 88,129 3,-298 2,-298 z"
       id="path2"
       style="fill:#cccccc;fill-opacity:1;stroke:none;stroke-opacity:1" />
    <path
       d="m 2933,1962 c 1,-4 -47,-79 -106,-166 l -108,-157 2,-520 c 1,-285 5,-519 10,-519 4,0 18,17 31,38 l 23,37 5,-85 5,-85 35,55 c 20,30 47,73 60,95 l 25,40 5,-305 5,-304 32,49 33,50 V 91 -4 l 105,167 105,167 -2,618 -3,617 -30,-45 -30,-45 -5,85 -5,85 -49,-78 c -26,-42 -51,-79 -55,-81 -3,-2 -5,85 -4,195 1,109 -1,199 -5,199 -4,0 -19,-19 -34,-43 l -28,-42 v 88 c 0,51 -4,87 -10,87 -5,0 -9,-4 -7,-8 z m 82,-526 c 44,69 83,128 87,130 5,3 8,-255 8,-574 V 413 l -53,-84 c -29,-46 -66,-104 -83,-129 l -29,-45 -3,400 -2,400 -43,-65 c -23,-36 -64,-100 -91,-143 -26,-42 -52,-80 -57,-82 -4,-3 -7,216 -6,487 l 2,493 56,80 c 30,44 71,103 90,130 l 34,50 5,-297 5,-297 z"
       id="path4"
       style="fill:#cccccc;fill-opacity:1;stroke:none;stroke-opacity:1" />
    <path
       d="M 0,1036 V 420 h 35 c 34,0 35,-1 35,-40 v -40 h 100 100 l 2,240 3,240 80,-200 c 63,-158 84,-200 98,-200 12,0 24,-14 34,-40 l 16,-40 h 103 104 l -19,48 c -10,26 -51,125 -90,221 -39,96 -71,177 -71,181 0,4 22,21 49,38 62,38 107,99 121,165 7,32 11,114 8,212 -4,187 -6,195 -103,307 -45,53 -79,82 -121,103 -59,30 -59,30 -271,33 l -213,4 z m 476,562 c 62,-32 116,-93 132,-147 7,-23 12,-107 12,-207 0,-143 -3,-175 -19,-209 C 578,985 521,928 471,905 l -39,-17 89,-220 c 49,-120 89,-221 89,-224 0,-2 -37,-4 -82,-4 h -83 l -92,233 c -91,230 -92,233 -90,312 l 2,80 55,3 c 109,5 130,37 130,192 0,174 -25,202 -171,198 l -94,-3 -3,-507 -2,-508 H 100 20 v 596 595 l 203,-3 c 197,-3 203,-4 253,-30 z m -48,-352 c -4,-143 -12,-156 -100,-156 h -58 v 135 135 h 81 81 z"
       id="path6"
       style="fill:#cccccc;fill-opacity:1;stroke:none;stroke-opacity:1" />
    <path
       d="m 885,1641 c -74,-24 -119,-74 -135,-148 -7,-30 -9,-240 -8,-558 l 3,-510 33,-3 c 30,-3 32,-6 32,-43 v -39 h 100 100 v 230 230 h 75 75 V 610 420 h 35 c 34,0 35,-1 35,-40 v -40 h 110 110 v 535 c 0,450 -2,541 -15,571 -22,53 -124,164 -170,185 -34,16 -65,18 -200,18 -88,-1 -169,-4 -180,-8 z m 386,-34 c 27,-15 52,-38 66,-63 l 23,-39 V 973 440 h -90 -90 v 510 510 H 1055 930 v -195 -195 h 80 80 v -85 -85 h -80 -80 V 670 440 h -85 -85 v 520 c 0,446 2,526 15,557 40,96 83,112 291,113 149,0 164,-2 205,-23 z m -111,-423 v -175 l -22,3 c -19,2 -24,10 -26,41 l -3,37 h -50 -49 v 135 135 h 75 75 z"
       id="path8"
       style="fill:#cccccc;fill-opacity:1;stroke:none;stroke-opacity:1" />
    <path
       d="m 1990,1545 v -105 h 35 c 34,0 35,-1 35,-40 v -40 h 140 c 77,0 140,-2 140,-5 0,-3 -83,-172 -185,-375 L 1970,610 v -95 -95 h 35 c 34,0 35,-1 35,-40 v -40 h 320 320 v 105 105 h -35 c -34,0 -35,1 -35,40 v 40 h -140 c -77,0 -140,2 -140,4 0,3 83,171 185,374 l 185,370 v 96 96 h -35 c -34,0 -35,1 -35,40 v 40 h -320 -320 z m 620,-2 v -88 l -210,-420 -209,-420 199,-3 200,-2 v -85 -85 h -300 -300 v 85 85 l 210,420 c 116,231 210,422 210,425 0,3 -90,5 -200,5 h -200 v 85 85 h 300 300 z"
       id="path10"
       style="fill:#cccccc;fill-opacity:1;stroke:none;stroke-opacity:1" />
    <path
       d="M 3230,1035 V 420 h 35 c 34,0 35,-1 35,-40 v -40 h 110 110 l 2,253 3,252 86,-210 c 71,-175 89,-211 107,-213 15,-2 25,-15 33,-43 l 12,-39 h 109 108 v 615 615 h -35 c -34,0 -35,1 -35,40 v 40 h -110 -110 l -2,-251 -3,-252 -85,208 c -65,161 -89,209 -106,215 -13,5 -28,25 -35,44 l -13,36 h -108 -108 z m 339,260 136,-330 3,333 2,332 h 90 90 V 1035 440 h -89 -89 l -34,83 c -19,45 -82,196 -139,335 l -104,254 -3,-336 -2,-336 h -90 -90 v 595 596 l 92,-3 92,-3 z"
       id="path12"
       style="fill:#cccccc;fill-opacity:1;stroke:none;stroke-opacity:1" />
    <path
       d="m 4112,1624 c -37,-19 -59,-38 -77,-68 l -25,-43 v -474 c 1,-513 -2,-485 60,-560 100,-121 128,-133 306,-127 65,2 127,8 137,12 12,6 17,4 17,-8 0,-14 15,-16 105,-16 h 105 v 345 345 h -35 c -32,0 -35,2 -35,30 0,28 3,30 35,30 h 35 v 175 c 0,98 -4,181 -10,188 -5,7 -39,46 -74,88 -89,105 -102,109 -319,109 -166,0 -175,-1 -225,-26 z m 444,-13 c 23,-10 52,-34 65,-52 23,-32 24,-43 27,-201 l 3,-168 h -85 -86 v 135 135 H 4340 4200 V 1040 620 h 140 140 v 150 150 h -90 -90 v 85 85 h 175 175 V 765 440 h -85 c -78,0 -85,2 -85,20 0,24 1,24 -43,5 -26,-11 -72,-15 -154,-15 -126,0 -178,14 -216,58 -44,49 -46,76 -46,522 0,234 4,443 9,464 12,54 38,87 90,114 41,20 57,22 220,22 149,0 181,-3 216,-19 z m -96,-346 v -95 h 35 c 32,0 35,-2 35,-30 v -30 h -120 c -126,0 -122,-1 -122,45 0,8 0,58 1,110 l 1,95 h 85 85 z M 4350,860 v -40 h 55 55 v -90 -90 h -85 c -61,0 -85,4 -86,13 0,10 0,219 1,240 0,4 14,7 30,7 28,0 30,-2 30,-40 z"
       id="path14"
       style="fill:#cccccc;fill-opacity:1;stroke:none;stroke-opacity:1" />
  </g>
  <path
     style="fill:#ffffff;fill-opacity:1;stroke:none;stroke-width:0.184057;stroke-opacity:1;paint-order:stroke fill markers"
     d="m 76.32092,102.05986 c 0.1187,-33.512349 0.3141,-51.575903 0.5762,-53.267693 0.22052,-1.42342 0.95343,-3.732415 1.65088,-5.201062 2.86358,-6.029862 6.5029,-8.08711 15.87347,-8.972991 5.13324,-0.485289 23.47954,-0.486804 26.83192,-0.0022 5.25182,0.75915 9.58053,3.794361 12.7451,8.93661 l 1.83591,2.983249 v 53.115968 53.115959 h -8.83476 -8.83475 V 101.78377 50.799857 H 105.46492 92.76496 v 19.694147 19.69415 h 8.09852 8.09853 v 8.28258 8.282586 h -8.09853 -8.09852 v 23.00718 23.00718 h -8.31182 -8.31182 z"
     id="path1165" />
  <path
     style="fill:#ffffff;fill-opacity:1;stroke:none;stroke-width:0.184057;stroke-opacity:1;paint-order:stroke fill markers"
     d="M 2.20869,93.501189 V 34.234687 l 9.66302,0.0187 c 13.24226,0.02564 28.0184,0.558477 30.4615,1.098473 7.34622,1.623729 15.94218,9.360283 18.09872,16.289245 1.46334,4.701744 1.8981,33.318861 0.58565,38.550096 -0.92072,3.669885 -2.74808,6.53418 -6.71063,10.518574 -3.11909,3.13627 -4.20781,3.96933 -7.02481,5.37521 -1.83351,0.91504 -3.55719,1.73823 -3.83042,1.82931 -0.36229,0.12076 1.66811,5.52312 7.50111,19.95836 10.29444,25.4762 9.89597,24.40599 9.18813,24.67762 -0.31161,0.11957 -3.93115,0.2174 -8.04342,0.2174 -5.63707,0 -7.52255,-0.11322 -7.66252,-0.46014 -4.09921,-10.16002 -15.11301,-38.47866 -16.21386,-41.68901 l -1.51475,-4.41738 -0.13198,-7.766934 -0.13199,-7.766932 4.55788,-0.253245 C 42.47778,89.776344 44.49957,87.453744 45.11101,74.203906 45.38008,68.373256 44.88094,61.44342 43.95395,58.139641 43.16094,55.313376 41.13984,52.95265 38.74292,52.052951 37.28269,51.504845 35.47805,51.373753 27.76085,51.255188 L 18.52616,51.11331 18.28244,64.668863 c -0.13405,7.455555 -0.24397,28.065301 -0.24427,45.799437 -2.9e-4,17.73413 -0.10905,34.50636 -0.24167,37.27163 l -0.24112,5.02775 H 9.88203 2.20869 Z"
     id="path1204" />
  <path
     style="fill:#ffffff;fill-opacity:1;stroke:none;stroke-width:0.184057;stroke-opacity:1;paint-order:stroke fill markers"
     d="m 169.57616,173.84226 c -0.13268,-3.79618 -0.24185,-11.8717 -0.24261,-17.9456 -0.002,-17.92229 -0.47151,-53.56098 -0.7052,-53.55754 -0.27062,0.004 -6.46771,9.50635 -12.94498,19.84928 l -4.94032,7.88874 -0.22319,-27.03071 c -0.12274,-14.866889 -0.24699,-36.814736 -0.27608,-48.773004 l -0.0529,-21.7423 8.55867,-12.615177 8.55867,-12.615177 0.29276,29.373919 c 0.16101,16.155655 0.36394,29.445103 0.45094,29.532103 0.34995,0.349956 1.44565,-1.25794 13.21642,-19.394619 l 4.14092,-6.380428 0.24438,14.447217 c 0.13441,7.945966 0.24438,33.82317 0.24438,57.504886 v 43.05767 l -4.84749,7.95798 c -4.35422,7.14821 -10.90389,17.34491 -11.14119,17.34491 -0.0505,0 -0.20052,-3.10596 -0.33318,-6.90215 z"
     id="path1243" />
  <path
     style="fill:#ffffff;fill-opacity:1;stroke:none;stroke-width:0.184057;stroke-opacity:1;paint-order:stroke fill markers"
     d="m 199.15016,144.5251 v -8.24258 l 20.98255,-42.096724 c 11.5404,-23.153203 20.98255,-42.278667 20.98255,-42.501033 0,-0.635697 -6.73296,-0.881394 -24.20356,-0.883232 l -15.92096,-0.0016 v -8.282659 -8.282585 h 30.00136 30.00136 v 8.467283 8.467282 l -20.98255,41.963822 c -11.5404,23.080096 -20.98254,42.129746 -20.98254,42.332576 0,0.23566 3.08882,0.36898 8.55867,0.36939 4.70727,3.6e-4 13.65246,0.10992 19.8782,0.24347 l 11.31953,0.24281 v 8.22318 8.22318 h -29.8173 -29.81731 z"
     id="path1282" />
  <path
     style="fill:#ffffff;fill-opacity:1;stroke:none;stroke-width:0.184057;stroke-opacity:1;paint-order:stroke fill markers"
     d="m 294.44059,156.43043 c -0.0282,-13.45368 -0.15247,-31.33578 -0.27608,-39.738 l -0.22476,-15.27678 -2.60832,3.86521 c -1.43458,2.12587 -4.81568,7.3439 -7.51356,11.59562 -2.69788,4.25173 -5.74665,8.9728 -6.77503,10.49127 l -1.8698,2.76087 -0.24741,-1.84058 c -0.13608,-1.01231 -0.26193,-22.92214 -0.27966,-48.688521 l -0.0323,-46.847942 8.74272,-12.652117 c 4.8085,-6.958664 8.79276,-12.607419 8.8539,-12.552788 0.0611,0.05463 0.34189,13.14044 0.62388,29.079577 0.28198,15.939139 0.59271,29.060267 0.69051,29.158064 0.0978,0.0978 0.58026,-0.459032 1.07214,-1.237396 3.20685,-5.074611 12.097,-18.812303 13.66061,-21.109358 l 1.87932,-2.760861 0.22856,5.521723 c 0.12572,3.036948 0.24995,28.946218 0.27609,57.576159 l 0.0476,52.05444 -3.38584,5.37148 c -4.71714,7.48352 -12.10299,18.9214 -12.48946,19.34145 -0.18392,0.1999 -0.34374,-10.12925 -0.37308,-24.11152 z"
     id="path1321" />
  <path
     style="fill:#ffffff;fill-opacity:1;stroke:none;stroke-width:0.184057;stroke-opacity:1;paint-order:stroke fill markers"
     d="M 325.04546,93.445636 V 34.123591 l 9.10479,0.264225 c 5.00763,0.145323 9.12303,0.294558 9.14532,0.331634 0.0223,0.03707 2.2387,5.45109 4.92533,12.031144 12.09724,29.628395 21.83665,53.216607 22.08239,53.482086 0.32923,0.35567 0.7555,-27.669027 0.75609,-49.708909 l 4.4e-4,-16.289084 h 8.83476 8.83476 v 59.266502 59.266491 h -8.83476 c -5.16903,0 -8.83476,-0.14133 -8.83476,-0.34062 0,-0.18734 -3.69978,-9.25677 -8.22173,-20.15428 -4.52195,-10.89753 -10.69248,-25.8542 -13.71228,-33.237056 l -5.49055,-13.423373 -0.23098,3.85239 c -0.12704,2.11881 -0.25163,13.128889 -0.27689,24.466819 -0.0253,11.33794 -0.15489,24.71432 -0.2881,29.72528 l -0.24221,9.11084 h -8.77581 -8.77581 z"
     id="path1360" />
  <path
     style="fill:#ffffff;fill-opacity:1;stroke:none;stroke-width:0.184057;stroke-opacity:1;paint-order:stroke fill markers"
     d="m 449.19884,152.39055 c -0.58803,-0.23651 -0.8892,-0.75314 -1.05936,-1.81723 -0.2849,-1.78166 -0.6263,-1.83741 -3.67248,-0.59963 -3.5946,1.46062 -7.23503,1.78847 -17.71592,1.59551 -12.11417,-0.22304 -15.00807,-0.92139 -18.8987,-4.56063 -5.24696,-4.90791 -5.49683,-7.2539 -5.48357,-51.482756 0.0106,-35.26264 0.33879,-46.882262 1.41135,-49.965365 2.06187,-5.926946 7.52661,-10.080615 14.38871,-10.936638 3.97679,-0.496092 27.11277,-0.502568 31.48348,-0.0088 5.81796,0.65725 11.17034,3.982398 13.2489,8.230832 1.21011,2.473373 1.5168,6.267371 1.84065,22.770652 l 0.23657,12.055761 h -8.49132 -8.49132 V 64.231677 50.791109 l -14.0804,0.0964 -14.08039,0.0964 -0.0936,42.057126 -0.0936,42.057125 h 14.17398 14.17398 v -15.0927 -15.09271 h -8.83475 -8.83476 v -8.282591 -8.28258 h 17.30139 17.30141 v 32.210051 32.21005 l -7.45433,-0.0233 c -4.09988,-0.0128 -7.82406,-0.17205 -8.27595,-0.3538 z"
     id="path1399" />
</svg>
