<?xml version="1.0" encoding="UTF-8"?>
<svg id="Calque_2" data-name="Calque 2" xmlns="http://www.w3.org/2000/svg" viewBox="0 0 288.05 154.77">
  <g id="Calque_1-2" data-name="Calque 1">
    <g>
      <g>
        <g>
          <path d="m.85,85.75l37.48-.04c15.33,0,27.76-12.39,27.76-27.65s-12.43-27.68-27.76-27.68l-9.73.05c-.77,0-1.39-.63-1.39-1.4s.62-1.4,1.39-1.4h37.41s.01-11.73.01-11.73H28.59c-7.24,0-13.12,5.88-13.12,13.1s5.89,13.09,13.12,13.09l9.78.13c8.78,0,15.89,7.08,15.89,15.83s-7.11,15.85-15.89,15.85H.87v11.86" style="fill: #fff; stroke-width: 0px;"/>
          <path d="m.87,71.13h37.5c7.26,0,13.13-5.86,13.13-13.09s-5.87-13.08-13.13-13.08l-9.78-.11c-8.77,0-15.89-7.09-15.89-15.86s7.12-15.83,15.89-15.83h37.43s-.01-11.79-.01-11.79H28.6C13.28,1.37.84,13.75.84,29.03s12.44,27.66,27.76,27.66h9.68c.74.01,1.36.61,1.36,1.37s-.62,1.34-1.36,1.34l-37.42.03v11.7" style="fill: #fff; stroke-width: 0px;"/>
          <path d="m95.14,73.96c-6.5,0-11.83-5.18-11.83-11.8V24.72c0-6.36,5.33-11.6,11.83-11.6h40s0-11.75,0-11.75h-40c-13.02,0-23.56,10.51-23.56,23.48v37.31c0,12.97,10.54,23.5,23.56,23.5l39.84.02v-11.73s-39.84.01-39.84.01" style="fill: #fff; stroke-width: 0px;"/>
          <path d="m86.18,24.85c0-4.96,3.99-8.98,8.96-8.98h40v11.77h-34.46c-2.76,0-2.8,2.74-2.8,2.74h28.75v11.72h-40.47v-17.25" style="fill: #fff; stroke-width: 0px;"/>
          <path d="m95.14,71.11c-4.95,0-8.97-4-8.97-8.94v-17.27h40.47v11.74h-28.75c.04,2.76,2.8,2.77,2.8,2.77h34.3v11.68s-39.83.02-39.83.02" style="fill: #fff; stroke-width: 0px;"/>
          <path d="m163.18,73.93c-6.48,0-11.77-5.28-11.77-11.77V24.85c0-6.49,5.26-11.73,11.74-11.73h38.74V1.37h-38.83c-13.01,0-23.56,10.51-23.56,23.48v37.31c0,12.97,10.64,23.5,23.65,23.5l38.74.02V30.38h-33.3v11.72h21.53v31.82h-26.95" style="fill: #fff; stroke-width: 0px;"/>
          <path d="m154.17,62.16c0,4.97,4.02,9.01,8.98,9.01h24.2v-26.29h-18.72v11.76h6.95l.02,2.76h-6.92c-1.51,0-2.75-1.25-2.75-2.76l-.06-26.26s0-2.73,2.78-2.8h33.26v-11.71s-38.76,0-38.76,0c-4.96,0-8.98,4.02-8.98,8.98v37.31" style="fill: #fff; stroke-width: 0px;"/>
          <path d="m238.3,15.7c.52-1.49,1.94-2.57,3.62-2.57s3.11,1.08,3.62,2.57l18.81,55.56h-27.54l.03-13.07h9.2l-4.14-12.31-13.5,39.79h-13.88l23.78-69.97" style="fill: #fff; stroke-width: 0px;"/>
          <path d="m268.14,73.93h-31.29v11.74h47.61l-24.76-73.26c-2.17-7.15-9.32-12.4-17.79-12.4s-15.61,5.23-17.8,12.37l-24.99,73.29h12.46l24.26-71.24c.99-2.36,3.31-4.02,6.04-4.02s5.05,1.66,6.05,4.01l20.2,59.52" style="fill: #fff; stroke-width: 0px;"/>
        </g>
        <g>
          <path d="m29.86,119.84c1.01,1.06,1.76,2.23,2.24,3.49.48,1.27.72,2.74.72,4.42,0,4-1.56,7.29-4.68,9.89s-6.99,3.89-11.61,3.89c-2.13,0-4.26-.31-6.4-.94-2.13-.63-3.97-1.39-5.52-2.28l-1.45,2.33H.47l-.47-15.5h2.73c.56,1.91,1.22,3.64,1.97,5.18s1.74,2.98,2.98,4.32c1.17,1.26,2.53,2.25,4.09,3,1.56.75,3.37,1.12,5.44,1.12,1.55,0,2.9-.19,4.06-.57,1.16-.38,2.09-.93,2.81-1.63.72-.7,1.25-1.53,1.6-2.48.35-.95.52-2.04.52-3.27,0-1.81-.54-3.5-1.62-5.06s-2.68-2.75-4.81-3.56c-1.46-.55-3.13-1.16-5.02-1.83-1.89-.67-3.51-1.3-4.88-1.89-2.69-1.15-4.79-2.65-6.28-4.51-1.49-1.86-2.24-4.29-2.24-7.29,0-1.72.37-3.33,1.11-4.82.74-1.49,1.79-2.82,3.16-3.99,1.3-1.11,2.84-1.97,4.61-2.6,1.77-.63,3.62-.94,5.55-.94,2.2,0,4.17.32,5.91.96,1.74.64,3.33,1.38,4.76,2.23l1.38-2.17h2.69l.27,15.03h-2.73c-.49-1.72-1.05-3.37-1.67-4.94-.62-1.57-1.42-3-2.41-4.28-.97-1.23-2.14-2.22-3.53-2.95-1.39-.73-3.1-1.1-5.12-1.1-2.13,0-3.95.65-5.45,1.95-1.5,1.3-2.26,2.88-2.26,4.75s.48,3.58,1.45,4.87c.96,1.29,2.37,2.34,4.21,3.17,1.64.75,3.25,1.39,4.83,1.93,1.58.54,3.11,1.12,4.59,1.74,1.35.55,2.64,1.18,3.89,1.88,1.25.7,2.33,1.52,3.25,2.46Z" style="fill: #fff; stroke-width: 0px;"/>
          <path d="m29.35,150.88c0-1.06.31-1.93.93-2.6.62-.67,1.39-1,2.31-1,.72,0,1.33.13,1.85.38.52.25.98.58,1.38.98.34.32.69.75,1.08,1.3.38.55.68,1,.91,1.36,1.12-.57,2.46-2.07,4.02-4.49,1.56-2.42,2.69-4.54,3.38-6.37-2.13-5.04-4.06-9.55-5.79-13.52-1.73-3.98-3.53-8.09-5.42-12.34-.43-.98-1.14-1.74-2.15-2.28s-2.02-.89-3.03-1.04v-2.11h15.15v2.23c-.67.02-1.48.15-2.42.4s-1.41.53-1.41.84c0,.13.05.34.15.64s.22.61.35.92c.85,2.1,2.15,5.14,3.89,9.1,1.75,3.96,3.1,7.13,4.06,9.51,1.01-2.27,2.06-4.63,3.15-7.06,1.09-2.43,2.31-5.31,3.66-8.62.16-.4.38-.96.67-1.67.29-.71.44-1.32.44-1.83,0-.55-.51-1.07-1.53-1.55-1.02-.48-1.99-.77-2.91-.88v-2.04h12.33v1.98c-.67.11-1.56.47-2.66,1.1-1.1.63-1.92,1.51-2.46,2.66-2.67,5.87-5.04,11.22-7.12,16.05s-3.65,8.38-4.73,10.66c-1.41,2.98-2.68,5.3-3.79,6.97s-2.19,2.98-3.25,3.94c-1.03.89-1.97,1.49-2.81,1.8-.84.31-1.71.46-2.61.46-1.75,0-3.13-.39-4.12-1.18-1-.79-1.5-1.69-1.5-2.71Z" style="fill: #fff; stroke-width: 0px;"/>
          <path d="m81.65,125.2c.92.77,1.63,1.65,2.12,2.65s.74,2.22.74,3.67c0,2.91-1.15,5.3-3.45,7.15-2.3,1.85-5.28,2.78-8.94,2.78-1.93,0-3.71-.33-5.34-.99s-2.79-1.27-3.48-1.82l-.67,2.07h-2.52l-.34-10.94h2.32c.18.83.56,1.8,1.14,2.91.58,1.11,1.29,2.11,2.12,3.01.88.94,1.92,1.73,3.15,2.37,1.22.64,2.6.96,4.12.96,2.15,0,3.81-.46,4.98-1.4,1.17-.93,1.75-2.26,1.75-4,0-.89-.19-1.66-.56-2.31-.37-.65-.92-1.22-1.63-1.71-.74-.49-1.65-.93-2.73-1.32s-2.28-.78-3.6-1.17c-1.06-.3-2.23-.71-3.52-1.23s-2.4-1.13-3.32-1.83c-.99-.74-1.8-1.66-2.42-2.74-.63-1.08-.94-2.36-.94-3.83,0-2.57,1.01-4.75,3.03-6.54,2.02-1.79,4.72-2.68,8.11-2.68,1.3,0,2.63.16,3.99.48,1.36.32,2.46.7,3.32,1.15l.77-1.66h2.42l.5,10.11h-2.32c-.47-2.26-1.49-4.11-3.05-5.53-1.56-1.42-3.46-2.13-5.71-2.13-1.84,0-3.29.44-4.34,1.32-1.06.88-1.58,1.94-1.58,3.18,0,.96.17,1.75.52,2.39.35.64.87,1.18,1.57,1.63.67.43,1.52.82,2.54,1.2,1.02.37,2.28.79,3.79,1.26,1.48.45,2.88.97,4.19,1.56,1.31.6,2.4,1.25,3.25,1.98Z" style="fill: #fff; stroke-width: 0px;"/>
          <path d="m103.96,139.23c-1.46.57-2.84,1.06-4.14,1.45-1.3.39-2.9.59-4.78.59-2.78,0-4.74-.67-5.87-1.99-1.13-1.33-1.7-3.21-1.7-5.63v-21.31h-5.99v-3.06h6.13v-9.79h6.13v9.79h9.53v3.06h-9.46v17.58c0,1.32.05,2.42.15,3.3.1.88.34,1.65.72,2.31.36.62.9,1.08,1.62,1.4.72.32,1.68.48,2.9.48.56,0,1.39-.05,2.47-.14,1.09-.1,1.86-.22,2.31-.37v2.33Z" style="fill: #fff; stroke-width: 0px;"/>
          <path d="m130.68,133.2c-1.39,2.51-3.25,4.51-5.59,6s-5.02,2.23-8.04,2.23c-2.67,0-5.01-.45-7.02-1.34-2.01-.89-3.66-2.11-4.96-3.64-1.3-1.53-2.27-3.32-2.91-5.36-.64-2.04-.96-4.2-.96-6.48,0-2.04.34-4.05,1.03-6.01.68-1.97,1.69-3.74,3.01-5.31,1.28-1.51,2.87-2.73,4.76-3.65,1.9-.92,4.02-1.39,6.38-1.39s4.5.36,6.23,1.08c1.73.72,3.13,1.71,4.21,2.97,1.03,1.19,1.8,2.6,2.31,4.21.5,1.62.76,3.37.76,5.26v2.11h-21.98c0,2.07.21,3.94.62,5.63.42,1.68,1.07,3.17,1.97,4.44.88,1.24,2.02,2.21,3.43,2.93,1.41.71,3.1,1.07,5.05,1.07s3.72-.44,5.17-1.33c1.45-.89,2.84-2.49,4.19-4.79l2.36,1.37Zm-7.44-12c0-1.19-.11-2.46-.32-3.82-.21-1.36-.56-2.49-1.03-3.4-.52-.97-1.22-1.77-2.12-2.38-.9-.62-2.05-.92-3.47-.92-2.36,0-4.31.93-5.87,2.78s-2.41,4.44-2.54,7.75h15.35Z" style="fill: #fff; stroke-width: 0px;"/>
          <path d="m185.24,140.6h-16.16v-2.11c.52-.04,1.04-.08,1.56-.13.53-.04.99-.13,1.4-.25.63-.19,1.09-.53,1.4-1s.46-1.1.46-1.87v-16.24c0-2.21-.53-3.92-1.6-5.12-1.07-1.2-2.4-1.8-3.99-1.8-1.1,0-2.13.16-3.1.48-.96.32-1.85.77-2.66,1.34-.65.47-1.19.97-1.63,1.51-.44.54-.77,1-.99,1.36v18.15c0,.75.13,1.36.4,1.83s.73.84,1.38,1.1c.52.19.98.33,1.4.43.41.1.96.17,1.63.21v2.11h-15.82v-2.11c.52-.04,1.02-.08,1.5-.13.48-.04.93-.13,1.33-.25.63-.19,1.09-.53,1.4-1,.3-.48.45-1.1.45-1.87v-16.24c0-2.21-.53-3.92-1.6-5.12-1.07-1.2-2.4-1.8-4-1.8-1.1,0-2.14.17-3.1.49-.97.33-1.86.78-2.67,1.36-.65.47-1.2,1-1.65,1.58-.45.59-.79,1.03-1.01,1.32v18.03c0,.72.16,1.33.47,1.82.31.49.79.86,1.41,1.12.47.21.95.37,1.45.48.49.11,1.04.18,1.65.22v2.11h-16.12v-2.11c.52-.04,1.05-.08,1.6-.13.55-.04,1.03-.13,1.43-.25.63-.19,1.09-.53,1.4-1,.3-.48.45-1.1.45-1.86v-19.53c0-.68-.16-1.29-.49-1.83-.33-.54-.78-1-1.36-1.39-.43-.25-.95-.46-1.58-.62-.63-.16-1.28-.26-1.95-.3v-2.11l11.11-.7.47.45v4.5h.24c.56-.53,1.25-1.16,2.05-1.88.81-.72,1.56-1.31,2.25-1.75.79-.51,1.77-.94,2.95-1.28,1.18-.34,2.45-.51,3.82-.51,2.15,0,4.01.55,5.55,1.64,1.55,1.1,2.66,2.42,3.33,3.97.81-.74,1.52-1.4,2.13-1.96.62-.56,1.43-1.17,2.44-1.8.85-.55,1.85-1,3.01-1.34,1.15-.34,2.44-.51,3.85-.51,2.8,0,5.02.87,6.65,2.62,1.63,1.74,2.45,4.42,2.45,8.04v15.98c0,.75.13,1.36.4,1.83.27.48.73.84,1.38,1.1.52.19,1.03.33,1.53.43.51.1,1.07.17,1.7.21v2.11Z" style="fill: #fff; stroke-width: 0px;"/>
        </g>
        <g>
          <path d="m277.99,121.63h-.38c-.03-.1-.09-.23-.18-.37-.09-.14-.18-.28-.29-.4-.11-.13-.23-.25-.36-.35-.13-.1-.26-.16-.38-.17-.11-.01-.26-.02-.43-.03-.17,0-.33,0-.48,0h-.32v4.9c0,.09.03.18.08.26.05.08.14.14.27.18.07.02.2.05.41.08.21.03.38.05.49.06v.31h-3.68v-.31c.1,0,.26-.02.47-.03s.36-.04.44-.06c.12-.04.21-.09.27-.16.06-.07.08-.16.08-.28v-4.94h-.32c-.11,0-.25,0-.42,0-.17,0-.33.01-.48.03-.12.01-.25.07-.38.17-.13.1-.25.22-.36.35-.11.13-.21.27-.29.41s-.14.27-.18.36h-.38v-1.66h6.79v1.66Z" style="fill: #fff; stroke-width: 0px;"/>
          <path d="m288.05,126.09h-3.44v-.31c.12,0,.29-.01.48-.03.2-.02.33-.04.4-.07.11-.05.2-.12.25-.19.05-.07.08-.16.08-.27v-4.45h-.08l-2.66,5.22h-.27l-2.53-5.32h-.07v3.65c0,.35.03.62.09.81.06.18.14.32.26.4.08.06.25.12.5.17.25.05.42.08.49.09v.31h-3.15v-.31c.17-.01.34-.03.52-.06.18-.03.32-.08.42-.14.13-.08.22-.2.26-.37.05-.17.07-.45.07-.84v-3.13c0-.18-.03-.33-.08-.44-.06-.12-.13-.21-.24-.28-.11-.08-.25-.13-.42-.17s-.33-.06-.49-.06v-.31h2.66l2.23,4.59,1.91-3.84c.07-.14.13-.29.18-.44.05-.15.08-.26.08-.31h2.54v.31c-.1,0-.23.02-.39.04-.16.02-.28.04-.35.06-.12.03-.21.09-.25.17s-.07.17-.07.26v4.41c0,.1.02.19.07.25.04.07.13.13.25.18.07.03.18.06.35.08.17.02.3.04.4.04v.31Z" style="fill: #fff; stroke-width: 0px;"/>
        </g>
      </g>
      <g>
        <path d="m235.45,94.38l-16.99,46.68h-11.65l9.11-25.03c1.32-3.61,2.02-5.79,2.11-6.52.09-.73-.18-1.28-.82-1.66-.64-.37-2.31-.56-5-.56h-1.15l1.98-5.44c6.07-1.21,11.26-3.7,15.55-7.48h6.86Z" style="fill: #fff; stroke-width: 0px;"/>
        <path d="m254.86,114.58c1.46.69,2.4,1.73,2.82,3.1.42,1.38-.31,4.65-2.19,9.82-1.37,3.77-2.75,6.55-4.13,8.34s-3.34,3.25-5.87,4.4c-2.53,1.14-5.58,1.72-9.13,1.72s-6-.55-7.62-1.64c-1.62-1.1-2.54-2.55-2.75-4.36-.22-1.81.44-4.82,1.97-9.03,1.03-2.83,2.14-5.28,3.33-7.36,1.19-2.08,3.15-3.74,5.9-4.99-1.19-.69-1.87-1.79-2.04-3.3s.17-3.42,1.01-5.75c1.46-4.01,3.67-7.03,6.63-9.03,2.96-2.01,6.66-3.01,11.1-3.01,5.13,0,8.29,1.07,9.48,3.2,1.18,2.13,1.06,5.18-.38,9.13-.92,2.52-1.9,4.33-2.95,5.45-1.05,1.11-2.77,2.22-5.17,3.31Zm-9.73,9.39c.65-1.79.9-2.97.75-3.56-.15-.59-.62-.88-1.41-.88s-1.42.28-1.97.85c-.54.57-1.15,1.76-1.81,3.59l-2.2,6.05c-.73,2.02-1.02,3.32-.85,3.89.16.58.65.86,1.46.86s1.49-.29,1.99-.88c.5-.59,1.13-1.91,1.88-3.96l2.17-5.97Zm6.83-19.41c.57-1.58.81-2.62.72-3.13-.09-.51-.53-.76-1.32-.76s-1.39.27-1.86.82c-.47.55-.98,1.57-1.52,3.07l-1.29,3.55c-.51,1.4-.71,2.37-.6,2.91.11.54.53.81,1.26.81.77,0,1.38-.26,1.85-.79.46-.53.99-1.62,1.59-3.27l1.17-3.2Z" style="fill: #fff; stroke-width: 0px;"/>
      </g>
    </g>
  </g>
</svg>