<?xml version="1.0" encoding="UTF-8" standalone="no"?>
<svg
   viewBox="0 0 46.40078 8.0000143"
   version="1.1"
   id="svg1"
   sodipodi:docname="auto-trivia.svg"
   inkscape:version="1.3.2 (091e20ef0f, 2023-11-25)"
   width="46.40078"
   height="8.0000143"
   xmlns:inkscape="http://www.inkscape.org/namespaces/inkscape"
   xmlns:sodipodi="http://sodipodi.sourceforge.net/DTD/sodipodi-0.dtd"
   xmlns="http://www.w3.org/2000/svg"
   xmlns:svg="http://www.w3.org/2000/svg">
  <defs
     id="defs1" />
  <sodipodi:namedview
     id="namedview1"
     pagecolor="#505050"
     bordercolor="#eeeeee"
     borderopacity="1"
     inkscape:showpageshadow="0"
     inkscape:pageopacity="0"
     inkscape:pagecheckerboard="0"
     inkscape:deskcolor="#505050"
     showgrid="false"
     inkscape:zoom="4.1944444"
     inkscape:cx="46.609272"
     inkscape:cy="75.456954"
     inkscape:window-width="2560"
     inkscape:window-height="1440"
     inkscape:window-x="1920"
     inkscape:window-y="0"
     inkscape:window-maximized="1"
     inkscape:current-layer="svg1" />
  <!--!Font Awesome Free 6.5.1 by @fontawesome - https://fontawesome.com License - https://fontawesome.com/license/free Copyright 2024 Fonticons, Inc.-->
  <path
     d="m 2.8749958,6.4794502e-6 c 0.48281,0 0.874999,0.3921900005498 0.874999,0.8750000005498 V 7.1249955 c 0,0.48281 -0.392189,0.875 -0.874999,0.875 -0.451559,0 -0.823439,-0.34219 -0.870309,-0.78281 -0.0813,0.0219 -0.167189,0.0328 -0.254689,0.0328 -0.55156,0 -0.999999,-0.44844 -0.999999,-1 0,-0.11563 0.0203,-0.22812 0.0563,-0.33125 C 0.3343788,5.7406255 0,5.2843655 0,4.7499955 c 0,-0.49844 0.29219,-0.929679 0.7156288,-1.129679 -0.13594,-0.17031 -0.21563,-0.38593 -0.21563,-0.62031 0,-0.47969 0.3375,-0.87969 0.787499,-0.97812 -0.025,-0.0859 -0.0375,-0.17813 -0.0375,-0.27188 0,-0.46719 0.32188,-0.86094002 0.754689,-0.97031002 0.0469,-0.4375 0.41875,-0.7796900005498 0.870309,-0.7796900005498 z m 2.249998,0 c 0.451559,0 0.821879,0.3421900005498 0.870308,0.7796900005498 0.43438,0.10937 0.75469,0.50156002 0.75469,0.97031002 0,0.0937 -0.0125,0.18594 -0.0375,0.27188 0.449999,0.0969 0.787499,0.49843 0.787499,0.97812 0,0.23438 -0.0797,0.45 -0.21562,0.62031 0.42343,0.2 0.715619,0.631239 0.715619,1.129679 0,0.53437 -0.33437,0.99063 -0.806249,1.16875 0.0359,0.10313 0.0563,0.21562 0.0563,0.33125 0,0.55156 -0.448439,1 -0.999999,1 -0.0875,0 -0.173439,-0.0109 -0.254689,-0.0328 -0.0469,0.44062 -0.41875,0.78281 -0.870309,0.78281 -0.48281,0 -0.874999,-0.39219 -0.874999,-0.875 V 0.87501648 c 0,-0.48281 0.392189,-0.87500000055 0.874999,-0.87500000055 z"
     id="path1"
     style="fill:#ffffff;stroke-width:0.015625" />
  <path
     d="m 14.222074,7.8095388 h -2.4381 V 2.2019087 h -1.70667 V 0.19047618 h 5.85144 V 2.2019087 h -1.70667 z m 6.497534,0 -1.036192,-2.2064805 h -0.646097 v 2.2064805 h -2.4381 V 0.19047618 h 3.535245 q 1.560384,0 2.243052,0.65828701 0.682668,0.65828701 0.682668,2.15771851 0,1.5725746 -0.938668,2.1699091 l 1.243431,2.633148 z m -1.682289,-3.974103 h 0.987431 q 0.268191,0 0.365715,-0.1097145 0.109714,-0.1097145 0.109714,-0.4022866 v -0.609525 q 0,-0.292572 -0.109714,-0.4022865 Q 20.292941,2.2019087 20.02475,2.2019087 H 19.037319 Z M 26.656382,0.19047618 V 7.8095388 h -2.4381 V 0.19047618 Z m 3.108568,0 1.231241,5.27848662 h 0.109714 l 1.231241,-5.27848662 h 2.4381 L 32.946671,7.8095388 H 29.155425 L 27.32685,0.19047618 Z m 8.118878,0 V 7.8095388 h -2.4381 V 0.19047618 Z m 5.619809,6.41220312 h -2.20648 l -0.304763,1.2068595 h -2.4381 l 1.95048,-7.61906262 H 44.29602 L 46.2465,7.8095388 H 43.8084 Z M 43.040398,4.8350568 42.455254,2.5310522 H 42.34554 l -0.585144,2.3040046 z"
     id="text1"
     style="font-weight:800;font-size:12.1905px;font-family:Changa;-inkscape-font-specification:'Changa, Ultra-Bold';fill:#ffffff;stroke:#fdfdfd;stroke-width:0.380952"
     transform="skewX(-10.759446)"
     aria-label="TRIVIA" />
</svg>
