<?xml version="1.0" encoding="UTF-8"?>
<svg id="Calque_2" data-name="Calque 2" xmlns="http://www.w3.org/2000/svg" viewBox="0 0 234.64 70.27">
  <g id="Calque_1-2" data-name="Calque 1">
    <g>
      <g id="layer1">
        <g id="g4193">
          <g id="g5398">
            <path id="polygon9" d="m14.67,1.09L0,40.37h10.59s8.21-21.1,8.21-21.1l5.44,21.1h12.42l-5.73-21.71L50.33,1.09h-12.7l-18.03,16.33L25.42,1.1h-10.74Z" style="fill: #fff; fill-rule: evenodd; stroke-width: 0px;"/>
            <path id="path11" d="m79.91,7.75c-.37-1.05-.92-2.04-1.61-2.92-.69-.88-1.51-1.66-2.44-2.29-.93-.63-1.95-1.1-3.13-1.48C70.34.3,67.52-.05,64.86,0c-1.35.03-2.69.16-4.28.46-1.59.3-3.42.78-5.14,1.53-1.72.74-3.33,1.76-4.75,2.98-1.42,1.22-2.64,2.66-3.54,3.91-.9,1.25-1.48,2.31-2.04,3.39-.55,1.07-1.09,2.15-1.57,3.26-.94,2.18-1.8,4.29-2.48,6.34-.32,1.01-.57,2.05-.76,3.1-.18,1.05-.29,2.11-.35,2.91-.05.8-.05,1.33-.02,1.86.03.53.08,1.06.15,1.58.07.53.15,1.06.45,1.9.3.85.8,2.01,1.52,3.05s1.63,1.93,2.67,2.64c1.05.71,2.22,1.23,3.56,1.6,2.71.75,5.89.97,8.88.8,1.51-.09,3.01-.29,4.66-.71,1.65-.42,3.43-1.06,5.08-1.96,1.65-.9,3.15-2.07,4.43-3.43,1.28-1.36,2.34-2.92,3.27-4.63.93-1.71,1.73-3.57,2.49-5.45.76-1.87,1.48-3.76,1.99-5.16.5-1.4.78-2.32,1-3.25.21-.93.36-1.88.45-2.83.18-1.88.12-4.02-.62-6.14h0Zm-10.36,5.84c-.57,2.14-1.15,4.28-1.84,6.38s-1.51,4.16-2.33,6.22c-.6,1.41-1.42,2.85-2.47,4.18-.7.88-1.43,1.49-2.23,1.94-.92.52-1.88.81-2.81.92-1.43.18-2.89-.04-4.04-.56-.63-.29-1.27-.73-1.79-1.29-.79-.87-1.04-1.78-1.09-2.64-.05-.99.07-1.97.32-2.92,1.17-4.62,2.91-9.22,5.33-13.75.33-.66.76-1.27,1.26-1.81.5-.54,1.08-1.01,1.72-1.38,1.3-.75,2.62-1.08,3.73-1.16,1.66-.09,3.43.06,4.85,1.26.43.37.78.82,1.05,1.32.26.5.43,1.05.49,1.61.06.56.01,1.13-.14,1.68h0Z" style="fill: #fff; fill-rule: evenodd; stroke-width: 0px;"/>
            <path id="polygon13" d="m90.06,1.09l-14.38,39.28h10.02l11.15-30.72.26,30.72h15.26L127.03,1.09h-9.98l-10.08,29.95-1.09-29.95h-15.82Z" style="fill: #fff; fill-rule: evenodd; stroke-width: 0px;"/>
            <path id="path15" d="m144.27,32.57l-.71,7.81h9.98l.7-39.29h-13.82l-25.8,39.29h10.67l5.33-7.78,13.65-.02Zm1.39-24.35l-1.12,16.44-8.7.02,9.82-16.46Z" style="fill: #fff; fill-rule: evenodd; stroke-width: 0px;"/>
            <path id="polygon17" d="m170.07,1.1l-14.67,39.27h10l11.55-30.79-2.26,30.8h9.89l20.02-30.8-11.7,30.79h9.76L217.42,1.1h-17.76l-15.76,27.7,3.73-27.7h-17.56Z" style="fill: #fff; fill-rule: evenodd; stroke-width: 0px;"/>
            <path id="polygon19" d="m224.32,1.1l-14.72,39.28h10.17L234.64,1.1h-10.32Z" style="fill: #fff; fill-rule: evenodd; stroke-width: 0px;"/>
          </g>
        </g>
      </g>
      <g>
        <path d="m185.45,54.06c-.88-1.29-2.03-1.93-3.45-1.93s-2.58.53-3.49,1.6c-.9,1.07-1.35,2.45-1.35,4.15,0,1.61.43,2.93,1.29,3.96.86,1.04,1.96,1.55,3.29,1.55.9,0,1.66-.2,2.26-.59s1.01-.95,1.22-1.68h-3.93v-5.85h13.47c.01.2.02.4.03.6.01.2.02.37.02.49,0,.12,0,.24,0,.36,0,2.69-.52,5.05-1.56,7.08-1.04,2.03-2.56,3.62-4.57,4.75-2,1.13-4.37,1.7-7.09,1.7-1.94,0-3.73-.31-5.39-.92-1.65-.62-3.06-1.48-4.21-2.58-1.16-1.1-2.06-2.44-2.72-4.01s-.98-3.29-.98-5.14.34-3.56,1.01-5.16,1.59-2.97,2.76-4.1c1.17-1.13,2.58-2.02,4.23-2.66,1.65-.64,3.43-.97,5.34-.97,4.04,0,7.27,1.12,9.68,3.37.73.69,1.47,1.68,2.23,2.96l-8.1,3.01Z" style="fill: #fff; stroke-width: 0px;"/>
        <path d="m203.55,56.66l-7.62-11.33h9.98l1.97,3.77c.23.43.4.82.5,1.17s.17.84.21,1.45c.07-.64.15-1.13.24-1.48.09-.35.25-.73.47-1.15l1.92-3.77h10l-7.62,11.33,8.53,13.07h-9.98l-2.91-5.32c-.25-.45-.42-.86-.51-1.23-.09-.37-.13-.87-.13-1.5,0,.63-.04,1.14-.13,1.53-.09.39-.26.79-.51,1.2l-2.94,5.32h-10l8.54-13.07Z" style="fill: #fff; stroke-width: 0px;"/>
      </g>
    </g>
  </g>
</svg>