<?xml version="1.0" encoding="UTF-8"?>
<svg id="Calque_2" data-name="Calque 2" xmlns="http://www.w3.org/2000/svg" viewBox="0 0 239.44 67.14">
  <g id="Calque_1-2" data-name="Calque 1">
    <g>
      <g id="layer1">
        <path id="rect4393" d="m194.3,0c-4.44,0-8.15,3.71-8.15,8.15v14.24c0,4.44,3.71,8.15,8.15,8.15h25.8c4.44,0,8.15-3.71,8.15-8.15v-14.24c0-4.44-3.71-8.15-8.15-8.15h-25.8Zm1.85,8.66h21.92v13.22h-21.92v-13.22Z" style="fill: #fff; stroke-width: 0px;"/>
        <path id="rect4348" d="m0,.61v29.96h10V9.27h18.87v21.31h9.81V8.76c0-4.44-3.71-8.15-8.15-8.15H0Z" style="fill: #fff; stroke-width: 0px;"/>
        <path id="path4359" d="m45.44.61v7.88h27.16v2.13h-21.2c-4.44,0-8.15,3.74-8.15,8.18v3.62c0,4.44,3.71,8.15,8.15,8.15h31.01V8.76c0-4.44-3.71-8.15-8.15-8.15h-28.81Zm8.01,17.99h19.14v4.26h-19.14v-4.26Z" style="fill: #fff; stroke-width: 0px;"/>
        <path id="path4384" d="m88.56.61v29.96h10.01V9.27h10.28v21.31h10.01V9.27h10.48v21.31h9.81V8.76c0-4.44-3.71-8.15-8.15-8.15h-42.44Z" style="fill: #fff; stroke-width: 0px;"/>
        <path id="rect4389" d="m153.11,0c-4.44,0-8.15,3.71-8.15,8.15v14.24c0,4.44,3.71,8.15,8.15,8.15h27.39v-8.66h-25.35v-13.22h25.35V0h-27.39Z" style="fill: #fff; stroke-width: 0px;"/>
        <path id="text4406" d="m234.67.28c1.31,0,2.43.47,3.37,1.4.94.94,1.41,2.06,1.41,3.38,0,1.31-.47,2.44-1.4,3.38-.93.94-2.06,1.41-3.37,1.41s-2.45-.47-3.39-1.4c-.94-.94-1.41-2.06-1.41-3.38s.47-2.45,1.41-3.38c.94-.93,2.07-1.4,3.38-1.4h0Zm-.01,8.78c1.09,0,2.03-.39,2.82-1.18.78-.78,1.18-1.73,1.18-2.82,0-1.1-.39-2.04-1.17-2.82-.78-.78-1.72-1.17-2.82-1.17-1.1,0-2.04.39-2.82,1.17-.78.78-1.17,1.72-1.17,2.82s.39,2.04,1.17,2.82c.78.78,1.72,1.18,2.82,1.18h0Zm2.16-1.35h-.95l-.4-1.12c-.24-.67-.7-1.01-1.36-1.01h-.65v2.13h-.83V2.57h1.93c1.36,0,2.04.47,2.04,1.41s-.45,1.4-1.34,1.46c.46.14.79.46,1.01.98l.55,1.29Zm-3.37-2.85h1.04c.82,0,1.22-.27,1.22-.81s-.42-.79-1.26-.79h-1v1.6Z" style="fill: #fff; stroke-width: 0px;"/>
      </g>
      <g>
        <path d="m95.68,38.43v28.71h-5.92v-32.19h15.89c6.96,0,8.76,2.67,8.76,9.86v22.33h-5.92v-22.56c0-5.16-.81-6.15-4.93-6.15h-7.89Z" style="fill: #fff; stroke-width: 0px;"/>
        <path d="m132.24,60.07h-8.64l-1.34,7.07h-4.81l6.7-32.39h7.99l6.42,32.39h-5.04l-1.29-7.07Zm-8.13-2.73h7.67l-3.42-19.82h-.46l-3.79,19.82Z" style="fill: #fff; stroke-width: 0px;"/>
      </g>
    </g>
  </g>
</svg>