<?xml version="1.0" encoding="UTF-8"?>
<svg id="Calque_2" data-name="Calque 2" xmlns="http://www.w3.org/2000/svg" viewBox="0 0 269.17 119.05">
  <g id="Calque_1-2" data-name="Calque 1">
    <g>
      <path d="m70.59,45.19c1.31-3.33,2.61-6.65,3.92-9.98,1.9.8,1.51,2.58,1.69,4.07.17,1.43-.04,2.89.21,4.32.14.84.26,1.82,1.38,1.9,1.38.1,1.59-.99,1.78-2,.22-1.14.16-2.3.17-3.45.02-4.18-.09-8.37.06-12.55.06-1.63-.32-3.56,1.7-4.51,4.62-5.79,9.92-10.94,15.21-16.09,6.27-5.66,6.04-4.3,8.31-5.76,1.89.02,21.45.07,25.95.1.02,1.48-1.26,1.76-2.19,2.36-8.8,5.6-12.92,15.27-11.05,25.66.34,1.9,1.42,3.88.04,5.82-9.15,15.43-9.72,31.4-.29,46.46,10.1,16.11,24.42,28.1,41.91,36.01.37.17.82.16,1.65.3v-57.97h40.19v58.68c-1.1.83-2.45.4-3.7.4-28.19.03-56.39,0-84.58.06-2.26,0-4.1-.46-5.96-1.85-14.54-10.88-27.54-22.99-34.19-40.54-3.59-9.5-3.94-19.19-2.42-29.08-.46-.83-.5-1.63.23-2.34Z" style="fill: gray; stroke-width: 0px;"/>
      <path d="m169.72,11.65v35.57c-2.24.81-4.25.41-6.79.36v-14.25c0-8.71.09-17.42-.05-26.13-.05-3.1.56-5.64,3.81-6.4,3.33-.78,6.21-.1,8.02,3.37,5.26,10.09,10.64,20.11,15.98,30.16.5.95,1.01,1.9,2.21,2.63V1.53c2.3-.87,4.31-.43,6.87-.42,0,3.9,0,7.77,0,11.64,0,9.58-.05,19.16.03,28.74.03,2.93-.07,5.53-3.59,6.45-3.62.95-6.24-.21-7.98-3.45-3.48-6.47-6.95-12.94-10.38-19.43-2.4-4.53-4.74-9.1-7.1-13.66-.34.08-.68.16-1.02.24Z" style="fill: gray; stroke-width: 0px;"/>
      <path d="m148.18,6.8c-1.36-4.45-5.43-4.54-8.92-5.56-2.76-.43-5.53-.42-8.29,0-7.35,2.96-11.75,8.45-13.94,15.97-1.78,6.08-.9,11.97.74,17.87.49.86.98,1.73,1.49,2.59,3.65,6.25,8.67,10.53,16.26,10.42,7.58-.11,12.81-4.35,15.94-10.86,5.15-10.69,4.11-20.95-3.27-30.41Zm-4.13,29.16c-4.93,6.28-12.9,6.1-17.66-.37-1.94-2.63-3.17-5.49-3.19-8.81,4.46-7.22,10.26-12.89,18.31-15.97,7,6.14,8.19,17.95,2.53,25.16Z" style="fill: #fff; stroke-width: 0px;"/>
      <path d="m204.01,47.61V1.13h31.23c.57,1.79.4,3.48.09,5.66h-23.91v34.76h23.5c1.03,2.23.64,4.04.51,6.06h-31.42Z" style="fill: #fff; stroke-width: 0px;"/>
      <path d="m12.39,6.85H0V1.18h18.95v46.52h-6.57V6.85Z" style="fill: #fff; stroke-width: 0px;"/>
      <path d="m252.34,6.83h-12.54V1.17h19.09v46.46h-6.55V6.83Z" style="fill: #fff; stroke-width: 0px;"/>
      <path d="m215.26,26.99v-5.44h15.04q.34,5.86-5.07,5.86c-3.05,0-6.1-.02-9.15-.04-.13,0-.25-.11-.83-.37Z" style="fill: #fff; stroke-width: 0px;"/>
      <path d="m148.18,6.8c-2.56-2.51-5.68-4.14-8.92-5.56,6.07,0,12.14,0,19.29,0-4,2.15-7.19,3.85-10.37,5.56Z" style="fill: gray; stroke-width: 0px;"/>
      <path d="m70.36,17.32C70.15,7.28,63.55.45,53.91.02c-9.33-.42-17.37,5.56-17.92,14.65-.67,10.96-.16,21.99-.16,32.97h6.86v-16.68h20.82v16.64c2.55.28,4.7.42,6.85-.07.08-.78.15-1.56.23-2.34-.07-9.29-.03-18.58-.23-27.87Zm-7,7.1h-20.52c-.05-5.97-1.59-12.18,4.28-16.36,3.44-2.45,7.46-2.73,11.08-.53,6.38,3.87,5.23,10.35,5.16,16.88Z" style="fill: #fff; stroke-width: 0px;"/>
      <path d="m141.52,10.8c-6.71,4.63-12.98,9.77-18.31,15.97-.94-5.49.49-10.38,3.99-14.6,3.71-4.46,9.18-4.89,14.32-1.38Z" style="fill: gray; stroke-width: 0px;"/>
      <rect x="74.51" y="1.03" width="6.99" height="46.82" style="fill: #fff; stroke-width: 0px;"/>
      <path d="m98.13,6.55h-12.39V.88h18.95v46.52h-6.57V6.55Z" style="fill: #fff; stroke-width: 0px;"/>
      <rect x="25.3" y=".96" width="5.85" height="5.85" style="fill: #fff; stroke-width: 0px;"/>
      <rect x="110.71" y=".81" width="5.85" height="5.85" style="fill: #fff; stroke-width: 0px;"/>
      <rect x="263.32" y="1.14" width="5.85" height="5.85" style="fill: #fff; stroke-width: 0px;"/>
    </g>
  </g>
</svg>