<?xml version="1.0" encoding="UTF-8"?>
<svg id="Calque_2" data-name="Calque 2" xmlns="http://www.w3.org/2000/svg" viewBox="0 0 239.44 53.4">
  <g id="Calque_1-2" data-name="Calque 1">
    <g>
      <g id="layer1">
        <path id="rect4393" d="m194.3,0c-4.44,0-8.15,3.71-8.15,8.15v14.24c0,4.44,3.71,8.15,8.15,8.15h25.8c4.44,0,8.15-3.71,8.15-8.15v-14.24c0-4.44-3.71-8.15-8.15-8.15h-25.8Zm1.85,8.66h21.92v13.22h-21.92v-13.22Z" style="fill: #fff; stroke-width: 0px;"/>
        <path id="rect4348" d="m0,.61v29.96h10V9.27h18.87v21.31h9.81V8.76c0-4.44-3.71-8.15-8.15-8.15H0Z" style="fill: #fff; stroke-width: 0px;"/>
        <path id="path4359" d="m45.44.61v7.88h27.16v2.13h-21.2c-4.44,0-8.15,3.74-8.15,8.18v3.62c0,4.44,3.71,8.15,8.15,8.15h31.01V8.76c0-4.44-3.71-8.15-8.15-8.15h-28.81Zm8.01,17.99h19.14v4.26h-19.14v-4.26Z" style="fill: #fff; stroke-width: 0px;"/>
        <path id="path4384" d="m88.56.61v29.96h10.01V9.27h10.28v21.31h10.01V9.27h10.48v21.31h9.81V8.76c0-4.44-3.71-8.15-8.15-8.15h-42.44Z" style="fill: #fff; stroke-width: 0px;"/>
        <path id="rect4389" d="m153.11,0c-4.44,0-8.15,3.71-8.15,8.15v14.24c0,4.44,3.71,8.15,8.15,8.15h27.39v-8.66h-25.35v-13.22h25.35V0h-27.39Z" style="fill: #fff; stroke-width: 0px;"/>
        <path id="text4406" d="m234.67.28c1.31,0,2.43.47,3.37,1.4.94.94,1.41,2.06,1.41,3.38,0,1.31-.47,2.44-1.4,3.38-.93.94-2.06,1.41-3.37,1.41s-2.45-.47-3.39-1.4c-.94-.94-1.41-2.06-1.41-3.38s.47-2.45,1.41-3.38c.94-.93,2.07-1.4,3.38-1.4h0Zm-.01,8.78c1.09,0,2.03-.39,2.82-1.18.78-.78,1.18-1.73,1.18-2.82,0-1.1-.39-2.04-1.17-2.82-.78-.78-1.72-1.17-2.82-1.17-1.1,0-2.04.39-2.82,1.17-.78.78-1.17,1.72-1.17,2.82s.39,2.04,1.17,2.82c.78.78,1.72,1.18,2.82,1.18h0Zm2.16-1.35h-.95l-.4-1.12c-.24-.67-.7-1.01-1.36-1.01h-.65v2.13h-.83V2.57h1.93c1.36,0,2.04.47,2.04,1.41s-.45,1.4-1.34,1.46c.46.14.79.46,1.01.98l.55,1.29Zm-3.37-2.85h1.04c.82,0,1.22-.27,1.22-.81s-.42-.79-1.26-.79h-1v1.6Z" style="fill: #fff; stroke-width: 0px;"/>
      </g>
      <g>
        <path d="m60.15,48.71c0,.6-.18,1.2-.54,1.78-.36.59-.86,1.08-1.51,1.49-.71.44-1.53.79-2.48,1.04-.94.25-2.08.37-3.41.37-1.43,0-2.71-.1-3.85-.31-1.14-.21-2.3-.51-3.47-.92v-2.57h.19c1,.65,2.16,1.15,3.47,1.5,1.31.35,2.54.53,3.69.53,1.63,0,2.9-.24,3.81-.72.91-.48,1.36-1.11,1.36-1.91,0-.68-.21-1.19-.64-1.51-.43-.32-1.08-.58-1.96-.76-.66-.14-1.38-.25-2.16-.34-.78-.09-1.6-.2-2.46-.34-1.75-.29-3.05-.79-3.9-1.49-.85-.7-1.27-1.62-1.27-2.74,0-1.29.7-2.35,2.1-3.18,1.4-.83,3.18-1.24,5.33-1.24,1.39,0,2.67.1,3.83.31,1.16.21,2.19.46,3.08.77v2.43h-.19c-.75-.5-1.74-.91-2.97-1.24-1.23-.33-2.48-.49-3.77-.49-1.41,0-2.54.23-3.39.68-.85.46-1.28,1.04-1.28,1.76,0,.64.21,1.15.64,1.51s1.17.65,2.25.84c.57.1,1.37.21,2.42.35,1.04.14,1.93.28,2.66.42,1.47.3,2.58.76,3.32,1.38.74.62,1.12,1.48,1.12,2.58Z" style="fill: #fff; stroke-width: 0px;"/>
        <path d="m79.06,37.68l-6.96,8.67v6.77h-2.63v-6.55l-6.99-8.89h2.91l5.41,6.91,5.46-6.91h2.8Z" style="fill: #fff; stroke-width: 0px;"/>
        <path d="m96.85,48.71c0,.6-.18,1.2-.54,1.78-.36.59-.86,1.08-1.51,1.49-.71.44-1.53.79-2.48,1.04-.94.25-2.08.37-3.41.37-1.43,0-2.71-.1-3.85-.31-1.14-.21-2.3-.51-3.47-.92v-2.57h.19c1,.65,2.16,1.15,3.47,1.5,1.31.35,2.54.53,3.69.53,1.63,0,2.9-.24,3.81-.72.91-.48,1.36-1.11,1.36-1.91,0-.68-.21-1.19-.64-1.51-.43-.32-1.08-.58-1.96-.76-.66-.14-1.38-.25-2.16-.34-.78-.09-1.6-.2-2.46-.34-1.75-.29-3.05-.79-3.9-1.49-.85-.7-1.27-1.62-1.27-2.74,0-1.29.7-2.35,2.1-3.18,1.4-.83,3.18-1.24,5.33-1.24,1.39,0,2.67.1,3.83.31,1.16.21,2.19.46,3.08.77v2.43h-.19c-.75-.5-1.74-.91-2.97-1.24-1.23-.33-2.48-.49-3.77-.49-1.41,0-2.54.23-3.39.68-.85.46-1.28,1.04-1.28,1.76,0,.64.21,1.15.64,1.51s1.17.65,2.25.84c.57.1,1.37.21,2.42.35,1.04.14,1.93.28,2.66.42,1.47.3,2.58.76,3.32,1.38.74.62,1.12,1.48,1.12,2.58Z" style="fill: #fff; stroke-width: 0px;"/>
        <path d="m115.87,39.5h-7.07v13.61h-2.63v-13.61h-7.07v-1.83h16.77v1.83Z" style="fill: #fff; stroke-width: 0px;"/>
        <path d="m132.24,53.12h-13.03v-15.44h13.03v1.83h-10.4v4.23h10.4v1.83h-10.4v5.73h10.4v1.83Z" style="fill: #fff; stroke-width: 0px;"/>
        <path d="m154.71,53.12h-2.63v-13.3l-5.5,9.05h-1.57l-5.46-9.05v13.3h-2.46v-15.44h3.59l5.27,8.6,5.1-8.6h3.65v15.44Z" style="fill: #fff; stroke-width: 0px;"/>
        <path d="m182.7,53.12h-10.71v-1.58h4.12v-10.35h-4.12v-1.41c.56,0,1.16-.04,1.79-.11.64-.07,1.12-.18,1.45-.32.41-.17.73-.39.96-.66.23-.27.37-.62.41-1.07h2.06v13.92h4.04v1.58Z" style="fill: #fff; stroke-width: 0px;"/>
      </g>
    </g>
  </g>
</svg>